ply
format ascii 1.0
element vertex 634
property float x
property float y
property float z
property uchar red
property uchar green
property uchar blue
element face 811
property list uchar int vertex_index
end_header
0.58837 -0.85358 0.65941 206 159 71
0.6853 -0.95051 0.65925 206 159 71
0.95185 -0.68396 0.65925 206 159 71
0.85492 -0.58703 0.65941 206 159 71
0.55367 -0.88837 0.71401 206 159 71
0.88971 -0.55233 0.71401 206 159 71
0.98664 -0.64926 0.71385 206 159 71
0.98648 -0.6491 1.05848 206 159 71
0.89016 -0.55278 1.05848 206 159 71
0.89023 -0.55285 1.18352 206 159 71
0.55419 -0.88889 1.18352 206 159 71
0.53699 -0.8717 1.20429 206 159 71
0.87303 -0.53566 1.20429 206 159 71
0.98641 -0.64904 1.24462 206 159 71
0.95438 -0.617 1.30168 206 159 71
0.8313 -0.49392 1.20429 206 159 71
0.8313 -0.49392 1.30168 206 159 71
0.55412 -0.88882 1.05848 206 159 71
0.5846 -0.2448 1.20333 206 159 71
0.5846 -0.2448 1.30088 206 159 71
0.5846 0.06702 1.20333 206 159 71
0.5846 0.06702 1.30088 206 159 71
-0.5846 -0.2448 1.30088 206 159 71
-0.5846 0.06702 1.30088 206 159 71
-0.5846 0.06702 1.20333 206 159 71
-0.92121 0.40333 1.30168 206 159 71
-0.92121 0.40333 1.20429 206 159 71
-1.04429 0.52641 1.30168 206 159 71
-0.96294 0.44506 1.20429 206 159 71
-1.07632 0.55844 1.24462 206 159 71
-0.98014 0.46226 1.18352 206 159 71
-0.44401 0.964 1.20429 206 159 71
-0.4612 0.98119 1.18352 206 159 71
-0.98007 0.46219 1.05848 206 159 71
-0.46113 0.98112 1.05848 206 159 71
-1.07639 0.55851 1.05848 206 159 71
-0.97962 0.46174 0.47246 206 159 71
-1.07655 0.55867 0.4723 206 159 71
-1.02285 0.61228 0.41769 206 159 71
-0.92591 0.51535 0.41785 206 159 71
-0.51429 0.92697 0.41785 206 159 71
-0.61123 1.0239 0.41769 206 159 71
-0.46068 0.98067 0.47246 206 159 71
-0.40227 0.92226 1.20429 206 159 71
-0.32924 0.84931 1.20409 206 159 71
-0.46875 0.5846 1.20333 206 159 71
-0.06426 0.5846 1.20333 206 159 71
-0.06426 0.5846 1.30088 206 159 71
-0.40227 0.92226 1.30168 206 159 71
-0.52535 1.04534 1.30168 206 159 71
-0.55739 1.07738 1.24462 206 159 71
-0.55745 1.07744 1.05848 206 159 71
-0.55761 1.07761 0.4723 206 159 71
0.06426 0.5846 1.20333 206 159 71
0.06426 0.5846 1.30088 206 159 71
0.50257 1.02242 1.30168 206 159 71
0.52955 1.0494 1.30184 206 159 71
0.60967 1.12952 1.20398 206 159 71
0.55413 1.07398 1.33468 206 159 71
0.65041 1.17026 1.25401 206 159 71
1.1286 0.61058 1.20398 206 159 71
1.16935 0.65132 1.25401 206 159 71
0.6506 1.17045 1.66736 206 159 71
1.16953 0.65151 1.66736 206 159 71
0.55428 1.07413 1.66754 206 159 71
0.65091 1.17076 2.03282 206 159 71
0.55398 1.07383 2.03276 206 159 71
0.60773 1.02027 2.08736 206 159 71
0.70452 1.11706 2.08742 206 159 71
1.16985 0.65182 2.03282 206 159 71
1.11614 0.70544 2.08742 206 159 71
0.46875 0.5846 1.20333 206 159 71
0.5846 0.497 1.20333 206 159 71
0.89361 0.37577 1.2037 206 159 71
0.6506 -0.9853 0.71385 218 167 74
0.65044 -0.98514 1.05848 218 167 74
0.98648 -0.6491 1.05848 218 167 74
0.98664 -0.64926 0.71385 218 167 74
0.6853 -0.95051 0.65925 218 167 74
0.95185 -0.68396 0.65925 218 167 74
0.36104 -0.69458 1.20376 206 159 71
0.49526 -0.82996 1.20429 206 159 71
0.46875 -0.5846 1.20333 206 159 71
0.25201 -0.5846 1.20333 206 159 71
0.25201 -0.5846 1.30088 206 159 71
0.49526 -0.82996 1.30168 206 159 71
0.61834 -0.95304 1.30168 206 159 71
0.65037 -0.98508 1.24462 206 159 71
0.65044 -0.98514 1.05848 206 159 71
0.6506 -0.9853 0.71385 206 159 71
-0.25201 -0.5846 1.20333 206 159 71
-0.25201 -0.5846 1.30088 206 159 71
-0.39822 -0.73208 1.20391 206 159 71
-0.49526 -0.82996 1.20429 206 159 71
-0.49526 -0.82996 1.30168 206 159 71
-0.53699 -0.8717 1.20429 206 159 71
-0.61834 -0.95304 1.30168 206 159 71
-0.55419 -0.88889 1.18352 206 159 71
-0.65037 -0.98508 1.24462 206 159 71
-0.55412 -0.88882 1.05848 206 159 71
-0.65044 -0.98514 1.05848 206 159 71
-0.55367 -0.88837 0.71401 206 159 71
-0.6506 -0.9853 0.71385 206 159 71
-0.58837 -0.85358 0.65941 206 159 71
-0.6853 -0.95051 0.65925 206 159 71
-0.46875 -0.5846 1.20333 206 159 71
-0.8313 -0.49392 1.20429 206 159 71
-0.5846 -0.497 1.20333 206 159 71
-0.87303 -0.53566 1.20429 206 159 71
-0.89023 -0.55285 1.18352 206 159 71
-0.98641 -0.64904 1.24462 206 159 71
-0.95438 -0.617 1.30168 206 159 71
-0.8313 -0.49392 1.30168 206 159 71
-0.89016 -0.55278 1.05848 206 159 71
-0.5846 -0.2448 1.20333 206 159 71
-0.98648 -0.6491 1.05848 206 159 71
-0.88971 -0.55233 0.71401 206 159 71
-0.98664 -0.64926 0.71385 206 159 71
-0.95185 -0.68396 0.65925 206 159 71
-0.85492 -0.58703 0.65941 206 159 71
0.61834 -0.95304 1.30168 227 177 86
0.49526 -0.82996 1.30168 227 177 86
0.8313 -0.49392 1.30168 227 177 86
0.95438 -0.617 1.30168 227 177 86
0.65037 -0.98508 1.24462 227 177 86
0.98641 -0.64904 1.24462 227 177 86
0.65044 -0.98514 1.05848 227 177 86
0.98648 -0.6491 1.05848 227 177 86
0.5846 -0.497 1.20333 206 159 71
0.49526 -0.82996 1.30168 218 167 74
0.25201 -0.5846 1.30088 218 167 74
0.5846 -0.2448 1.30088 218 167 74
0.8313 -0.49392 1.30168 218 167 74
-0.55761 1.07761 0.4723 218 167 74
-0.55745 1.07744 1.05848 218 167 74
-1.07639 0.55851 1.05848 218 167 74
-1.07655 0.55867 0.4723 218 167 74
-0.61123 1.0239 0.41769 218 167 74
-1.02285 0.61228 0.41769 218 167 74
-0.52535 1.04534 1.30168 227 177 86
-0.40227 0.92226 1.30168 227 177 86
-0.92121 0.40333 1.30168 227 177 86
-1.04429 0.52641 1.30168 227 177 86
-0.55739 1.07738 1.24462 227 177 86
-1.07632 0.55844 1.24462 227 177 86
-0.55745 1.07744 1.05848 227 177 86
-1.07639 0.55851 1.05848 227 177 86
-0.40227 0.92226 1.30168 218 167 74
-0.06426 0.5846 1.30088 218 167 74
-0.5846 0.06702 1.30088 218 167 74
-0.92121 0.40333 1.30168 218 167 74
-0.6506 -0.9853 0.71385 218 167 74
-0.98664 -0.64926 0.71385 218 167 74
-0.98648 -0.6491 1.05848 218 167 74
-0.65044 -0.98514 1.05848 218 167 74
-0.6853 -0.95051 0.65925 218 167 74
-0.95185 -0.68396 0.65925 218 167 74
-0.61834 -0.95304 1.30168 227 177 86
-0.95438 -0.617 1.30168 227 177 86
-0.8313 -0.49392 1.30168 227 177 86
-0.49526 -0.82996 1.30168 227 177 86
-0.65037 -0.98508 1.24462 227 177 86
-0.98641 -0.64904 1.24462 227 177 86
-0.65044 -0.98514 1.05848 227 177 86
-0.98648 -0.6491 1.05848 227 177 86
-0.49526 -0.82996 1.30168 218 167 74
-0.8313 -0.49392 1.30168 218 167 74
-0.5846 -0.2448 1.30088 218 167 74
-0.25201 -0.5846 1.30088 218 167 74
1.01935 0.60864 2.08736 206 159 71
1.07291 0.55489 2.03276 206 159 71
1.07321 0.55519 1.66754 206 159 71
1.07307 0.55504 1.33468 206 159 71
1.04848 0.53046 1.30184 206 159 71
1.07291 0.55489 2.03276 227 177 86
1.07321 0.55519 1.66754 227 177 86
0.55428 1.07413 1.66754 227 177 86
0.55398 1.07383 2.03276 227 177 86
1.01935 0.60864 2.08736 227 177 86
0.60773 1.02027 2.08736 227 177 86
0.50257 1.02242 1.30168 218 167 74
0.52955 1.0494 1.30184 218 167 74
1.04848 0.53046 1.30184 218 167 74
0.06426 0.5846 1.30088 218 167 74
0.5846 0.06702 1.30088 218 167 74
1.07307 0.55504 1.33468 218 167 74
0.55413 1.07398 1.33468 218 167 74
1.07321 0.55519 1.66754 218 167 74
0.55428 1.07413 1.66754 218 167 74
-0.5846 0.497 1.20333 206 159 71
-0.5846 -0.497 0.31127 110 152 72
-0.5846 -0.497 1.20333 110 152 72
-0.46875 -0.5846 1.20333 110 152 72
-0.46875 -0.5846 0.31127 110 152 72
-0.5164 -0.43901 0.22942 110 152 72
-0.41406 -0.5164 0.22942 110 152 72
0.46875 -0.5846 0.31127 110 152 72
0.41406 -0.5164 0.22942 110 152 72
-0.5164 0.43901 0.22942 110 152 72
-0.5846 0.497 0.31127 110 152 72
0.5846 -0.497 0.31127 110 152 72
0.5164 -0.43901 0.22942 110 152 72
0.5164 0.43901 0.22942 110 152 72
-0.36921 -0.5846 0.68734 110 152 72
0.36921 -0.5846 0.68734 110 152 72
-0.41406 0.5164 0.22942 110 152 72
-0.46875 0.5846 0.31127 110 152 72
0.46875 0.5846 0.31127 110 152 72
0.41406 0.5164 0.22942 110 152 72
0.5846 0.497 0.31127 110 152 72
0.5846 0.497 1.20333 110 152 72
0.46875 0.5846 1.20333 110 152 72
0.06426 0.5846 1.20333 110 152 72
-0.5846 0.497 1.20333 110 152 72
-0.46875 0.5846 1.20333 110 152 72
-0.06426 0.5846 1.20333 110 152 72
0.5846 0.06702 1.20333 110 152 72
0.5846 -0.2448 1.20333 110 152 72
0.5846 -0.497 1.20333 110 152 72
-0.5846 0.06702 1.20333 110 152 72
-0.5846 -0.2448 1.20333 110 152 72
-0.28503 -0.52451 0.83132 210 209 213
0.28503 -0.52451 0.83132 210 209 213
0.28503 -0.52451 0.7567 210 209 213
-0.28503 -0.52451 0.7567 210 209 213
-0.28503 -0.5846 0.83132 210 209 213
-0.28503 -0.5846 0.7567 210 209 213
0.28503 -0.5846 0.7567 210 209 213
0.28503 -0.5846 0.83132 210 209 213
-0.36921 -0.5846 0.90068 110 152 72
-0.25201 -0.5846 1.20333 110 152 72
0.25201 -0.5846 1.20333 110 152 72
0.36921 -0.5846 0.90068 110 152 72
0.46875 -0.5846 1.20333 110 152 72
-0.36921 -0.61228 0.90068 202 136 58
-0.28503 -0.61228 0.83132 202 136 58
-0.28503 -0.61228 0.7567 202 136 58
-0.36921 -0.61228 0.68734 202 136 58
0.36921 -0.61228 0.68734 202 136 58
0.28503 -0.61228 0.7567 202 136 58
0.28503 -0.61228 0.83132 202 136 58
0.36921 -0.61228 0.90068 202 136 58
-0.36921 -0.5846 0.90068 202 136 58
-0.36921 -0.5846 0.68734 202 136 58
-0.28503 -0.5846 0.7567 202 136 58
-0.28503 -0.5846 0.83132 202 136 58
0.36921 -0.5846 0.68734 202 136 58
0.28503 -0.5846 0.7567 202 136 58
0.36921 -0.5846 0.90068 202 136 58
0.28503 -0.5846 0.83132 202 136 58
0.12391 -0.59329 1.07609 30 42 24
0.12391 -0.57357 1.07609 30 42 24
0.15707 -0.57357 1.07609 30 42 24
0.15707 -0.59329 1.07609 30 42 24
0.12391 -0.57357 0.99039 30 42 24
0.12391 -0.57357 0.95737 30 42 24
0.12391 -0.59329 0.95737 30 42 24
0.40676 -0.57357 0.95737 30 42 24
0.40676 -0.59329 0.95737 30 42 24
0.40676 -0.57357 0.99039 30 42 24
0.40676 -0.59329 0.99039 30 42 24
0.15707 -0.57357 0.99039 30 42 24
0.15707 -0.59329 0.99039 30 42 24
-0.12391 -0.59329 1.07609 30 42 24
-0.15707 -0.59329 1.07609 30 42 24
-0.15707 -0.57357 1.07609 30 42 24
-0.12391 -0.57357 1.07609 30 42 24
-0.12391 -0.57357 0.99039 30 42 24
-0.12391 -0.59329 0.95737 30 42 24
-0.12391 -0.57357 0.95737 30 42 24
-0.40676 -0.57357 0.95737 30 42 24
-0.40676 -0.59329 0.95737 30 42 24
-0.40676 -0.57357 0.99039 30 42 24
-0.40676 -0.59329 0.99039 30 42 24
-0.15707 -0.57357 0.99039 30 42 24
-0.15707 -0.59329 0.99039 30 42 24
0.22405 -0.63545 0.62533 210 209 213
0.22405 -0.63545 0.49326 210 209 213
0.13641 -0.63545 0.49326 210 209 213
0.22405 -0.5136 0.62533 210 209 213
0.26709 -0.5136 0.62533 210 209 213
0.26709 -0.63545 0.62533 210 209 213
0.22405 -0.5136 0.49326 210 209 213
0.13641 -0.63545 0.7743 210 209 213
0.13641 -0.5136 0.49326 210 209 213
0.13641 -0.5136 0.7743 210 209 213
0.28511 -0.5136 0.7743 210 209 213
0.28511 -0.63545 0.7743 210 209 213
0.28511 -0.63545 0.64642 210 209 213
0.28511 -0.5136 0.64642 210 209 213
0.20979 -0.63545 0.47536 210 209 213
0.20979 -0.5136 0.47536 210 209 213
0.15068 -0.5136 0.47536 210 209 213
0.15068 -0.63545 0.47536 210 209 213
0.40134 -0.10766 0.51631 110 152 72
0.40134 -0.10766 0.73163 110 152 72
0.92351 -0.10766 0.73163 110 152 72
0.92351 -0.10766 0.51631 110 152 72
0.40134 0.10766 0.51631 110 152 72
0.92351 0.10766 0.51631 110 152 72
0.96726 -0.08254 0.54143 110 152 72
0.96726 0.08254 0.54143 110 152 72
0.96726 0.08254 0.70651 110 152 72
0.96726 -0.08254 0.70651 110 152 72
0.92351 0.10766 0.73163 110 152 72
0.40134 0.10766 0.73163 110 152 72
0.40134 -0.10766 0.73163 115 158 75
0.40134 0.10766 0.73163 115 158 75
0.92351 0.10766 0.73163 115 158 75
0.92351 -0.10766 0.73163 115 158 75
0.96726 -0.08254 0.70651 115 158 75
0.96726 0.08254 0.70651 115 158 75
-0.40134 -0.10766 0.51631 110 152 72
-0.92351 -0.10766 0.51631 110 152 72
-0.92351 -0.10766 0.73163 110 152 72
-0.40134 -0.10766 0.73163 110 152 72
-0.40134 0.10766 0.51631 110 152 72
-0.92351 0.10766 0.51631 110 152 72
-0.96726 -0.08254 0.54143 110 152 72
-0.96726 0.08254 0.54143 110 152 72
-0.96726 0.08254 0.70651 110 152 72
-0.96726 -0.08254 0.70651 110 152 72
-0.92351 0.10766 0.73163 110 152 72
-0.40134 0.10766 0.73163 110 152 72
-0.40134 -0.10766 0.73163 115 158 75
-0.92351 -0.10766 0.73163 115 158 75
-0.92351 0.10766 0.73163 115 158 75
-0.40134 0.10766 0.73163 115 158 75
-0.96726 -0.08254 0.70651 115 158 75
-0.96726 0.08254 0.70651 115 158 75
0.18201 -0.13136 1.89847 206 159 71
0.18201 -0.13136 1.97513 206 159 71
0.18201 0.13211 1.97513 206 159 71
0.18201 0.13211 1.89847 206 159 71
0.13551 0.18201 1.97513 206 159 71
0.13551 0.18201 1.89847 206 159 71
0.13432 -0.18201 1.97513 206 159 71
0.13432 -0.18201 1.89847 206 159 71
-0.13551 0.18201 1.89847 206 159 71
-0.13551 0.18201 1.97513 206 159 71
-0.18201 0.13211 1.89847 206 159 71
-0.18201 0.13211 1.97513 206 159 71
-0.18201 -0.13136 1.89847 206 159 71
-0.18201 -0.13136 1.97513 206 159 71
-0.13432 -0.18201 1.97513 206 159 71
-0.13432 -0.18201 1.89847 206 159 71
0.18201 0.13211 1.97513 218 167 74
0.18201 -0.13136 1.97513 218 167 74
-0.18201 -0.13136 1.97513 218 167 74
-0.18201 0.13211 1.97513 218 167 74
-0.13432 -0.18201 1.97513 218 167 74
0.13432 -0.18201 1.97513 218 167 74
0.13551 0.18201 1.97513 218 167 74
-0.13551 0.18201 1.97513 218 167 74
-0.18649 -0.53104 1.9411 222 198 166
-0.18649 -0.53104 1.96351 222 198 166
-0.06685 -0.53104 1.96351 222 198 166
-0.06685 -0.53104 1.9411 222 198 166
-0.06685 -0.42151 1.96351 222 198 166
-0.18649 -0.42151 1.96351 222 198 166
-0.06685 -0.42151 1.9411 222 198 166
-0.18649 -0.42151 1.9411 222 198 166
0.13248 -0.38268 1.9411 222 198 166
0.13248 -0.38268 1.96351 222 198 166
0.21999 -0.38268 1.96351 222 198 166
0.21999 -0.38268 1.9411 222 198 166
0.21999 -0.29518 1.96351 222 198 166
0.13248 -0.29518 1.96351 222 198 166
0.21999 -0.29518 1.9411 222 198 166
0.13248 -0.29518 1.9411 222 198 166
-0.00179 0.42599 1.9411 222 198 166
-0.00179 0.42599 1.96351 222 198 166
0.12963 0.42599 1.96351 222 198 166
0.12963 0.42599 1.9411 222 198 166
0.12963 0.55739 1.96351 222 198 166
-0.00179 0.55739 1.96351 222 198 166
0.12963 0.55739 1.9411 222 198 166
-0.00179 0.55739 1.9411 222 198 166
-0.62657 0.12421 1.91944 222 198 166
-0.62657 0.12421 1.94184 222 198 166
-0.51211 0.12421 1.94184 222 198 166
-0.51211 0.12421 1.91944 222 198 166
-0.51211 0.23308 1.94184 222 198 166
-0.62657 0.23308 1.94184 222 198 166
-0.51211 0.23308 1.91944 222 198 166
-0.62657 0.23308 1.91944 222 198 166
0.42551 0.01704 1.91944 222 198 166
0.42551 0.01704 1.94184 222 198 166
0.56497 0.01704 1.94184 222 198 166
0.56497 0.01704 1.91944 222 198 166
0.56497 0.1603 1.94184 222 198 166
0.42551 0.1603 1.94184 222 198 166
0.56497 0.1603 1.91944 222 198 166
0.42551 0.1603 1.91944 222 198 166
-0.5211 -0.1407 1.91944 222 198 166
-0.5211 -0.1407 1.94184 222 198 166
-0.40548 -0.1407 1.94184 222 198 166
-0.40548 -0.1407 1.91944 222 198 166
-0.40548 -0.02826 1.94184 222 198 166
-0.5211 -0.02826 1.94184 222 198 166
-0.40548 -0.02826 1.91944 222 198 166
-0.5211 -0.02826 1.91944 222 198 166
-0.36924 -0.72009 1.34382 149 124 64
-0.36924 -0.72009 1.89969 149 124 64
-0.29568 -0.78404 1.89969 149 124 64
-0.29568 -0.78404 1.34382 149 124 64
-0.36924 -0.12858 1.34382 149 124 64
-0.36924 -0.12858 1.89969 149 124 64
-0.29568 -0.06463 1.34382 149 124 64
-0.29568 -0.06463 1.89969 149 124 64
0.29568 -0.78404 1.34382 149 124 64
0.29568 -0.78404 1.89969 149 124 64
0.29568 -0.06463 1.89969 149 124 64
0.29568 -0.06463 1.34382 149 124 64
0.36924 -0.72009 1.34382 149 124 64
0.36924 -0.72009 1.89969 149 124 64
0.36924 -0.12858 1.89969 149 124 64
0.36924 -0.12858 1.34382 149 124 64
-0.25626 -0.1126 1.9475 149 124 64
0.25626 -0.1126 1.9475 149 124 64
-0.32001 -0.16802 1.9475 149 124 64
-0.32001 -0.68066 1.9475 149 124 64
-0.25626 -0.73608 1.9475 149 124 64
0.25626 -0.73608 1.9475 149 124 64
0.32001 -0.68066 1.9475 149 124 64
0.32001 -0.16802 1.9475 149 124 64
0.32001 -0.16802 1.9475 167 140 72
0.32001 -0.68066 1.9475 167 140 72
-0.32001 -0.68066 1.9475 167 140 72
-0.32001 -0.16802 1.9475 167 140 72
-0.25626 -0.73608 1.9475 167 140 72
0.25626 -0.73608 1.9475 167 140 72
0.25626 -0.1126 1.9475 167 140 72
-0.25626 -0.1126 1.9475 167 140 72
0.25626 -0.73608 1.29601 149 124 64
0.32001 -0.68066 1.29601 149 124 64
-0.32001 -0.68066 1.29601 149 124 64
-0.25626 -0.73608 1.29601 149 124 64
-0.32001 -0.16802 1.29601 149 124 64
-0.25626 -0.1126 1.29601 149 124 64
0.25626 -0.1126 1.29601 149 124 64
0.32001 -0.16802 1.29601 149 124 64
0.36924 0.72009 1.34382 149 124 64
0.36924 0.72009 1.89969 149 124 64
0.29568 0.78404 1.89969 149 124 64
0.29568 0.78404 1.34382 149 124 64
0.36924 0.12858 1.34382 149 124 64
0.36924 0.12858 1.89969 149 124 64
0.29568 0.06463 1.34382 149 124 64
0.29568 0.06463 1.89969 149 124 64
-0.29568 0.78404 1.34382 149 124 64
-0.29568 0.78404 1.89969 149 124 64
-0.29568 0.06463 1.89969 149 124 64
-0.29568 0.06463 1.34382 149 124 64
-0.36924 0.72009 1.34382 149 124 64
-0.36924 0.72009 1.89969 149 124 64
-0.36924 0.12858 1.89969 149 124 64
-0.36924 0.12858 1.34382 149 124 64
0.25626 0.1126 1.9475 149 124 64
-0.25626 0.1126 1.9475 149 124 64
0.32001 0.16802 1.9475 149 124 64
0.32001 0.68066 1.9475 149 124 64
0.25626 0.73608 1.9475 149 124 64
-0.25626 0.73608 1.9475 149 124 64
-0.32001 0.68066 1.9475 149 124 64
-0.32001 0.16802 1.9475 149 124 64
-0.32001 0.16802 1.9475 167 140 72
-0.32001 0.68066 1.9475 167 140 72
0.32001 0.68066 1.9475 167 140 72
0.32001 0.16802 1.9475 167 140 72
0.25626 0.73608 1.9475 167 140 72
-0.25626 0.73608 1.9475 167 140 72
-0.25626 0.1126 1.9475 167 140 72
0.25626 0.1126 1.9475 167 140 72
-0.25626 0.73608 1.29601 149 124 64
-0.32001 0.68066 1.29601 149 124 64
0.32001 0.68066 1.29601 149 124 64
0.25626 0.73608 1.29601 149 124 64
0.32001 0.16802 1.29601 149 124 64
0.25626 0.1126 1.29601 149 124 64
-0.25626 0.1126 1.29601 149 124 64
-0.32001 0.16802 1.29601 149 124 64
0.72009 -0.36924 1.34382 149 124 64
0.72009 -0.36924 1.87618 149 124 64
0.78404 -0.29568 1.87618 149 124 64
0.78404 -0.29568 1.34382 149 124 64
0.12858 -0.36924 1.34382 149 124 64
0.12858 -0.36924 1.87618 149 124 64
0.06463 -0.29568 1.34382 149 124 64
0.06463 -0.29568 1.87618 149 124 64
0.78404 0.29568 1.34382 149 124 64
0.78404 0.29568 1.87618 149 124 64
0.06463 0.29568 1.87618 149 124 64
0.06463 0.29568 1.34382 149 124 64
0.72009 0.36924 1.34382 149 124 64
0.72009 0.36924 1.87618 149 124 64
0.12858 0.36924 1.87618 149 124 64
0.12858 0.36924 1.34382 149 124 64
0.1126 -0.25626 1.92399 149 124 64
0.1126 0.25626 1.92399 149 124 64
0.16802 -0.32001 1.92399 149 124 64
0.68066 -0.32001 1.92399 149 124 64
0.73608 -0.25626 1.92399 149 124 64
0.73608 0.25626 1.92399 149 124 64
0.68066 0.32001 1.92399 149 124 64
0.16802 0.32001 1.92399 149 124 64
0.16802 0.32001 1.92399 167 140 72
0.68066 0.32001 1.92399 167 140 72
0.68066 -0.32001 1.92399 167 140 72
0.16802 -0.32001 1.92399 167 140 72
0.73608 -0.25626 1.92399 167 140 72
0.73608 0.25626 1.92399 167 140 72
0.1126 0.25626 1.92399 167 140 72
0.1126 -0.25626 1.92399 167 140 72
0.73608 0.25626 1.29601 149 124 64
0.68066 0.32001 1.29601 149 124 64
0.68066 -0.32001 1.29601 149 124 64
0.73608 -0.25626 1.29601 149 124 64
0.16802 -0.32001 1.29601 149 124 64
0.1126 -0.25626 1.29601 149 124 64
0.1126 0.25626 1.29601 149 124 64
0.16802 0.32001 1.29601 149 124 64
-0.72009 0.36924 1.34382 149 124 64
-0.72009 0.36924 1.87618 149 124 64
-0.78404 0.29568 1.87618 149 124 64
-0.78404 0.29568 1.34382 149 124 64
-0.12858 0.36924 1.34382 149 124 64
-0.12858 0.36924 1.87618 149 124 64
-0.06463 0.29568 1.34382 149 124 64
-0.06463 0.29568 1.87618 149 124 64
-0.78404 -0.29568 1.34382 149 124 64
-0.78404 -0.29568 1.87618 149 124 64
-0.06463 -0.29568 1.87618 149 124 64
-0.06463 -0.29568 1.34382 149 124 64
-0.72009 -0.36924 1.34382 149 124 64
-0.72009 -0.36924 1.87618 149 124 64
-0.12858 -0.36924 1.87618 149 124 64
-0.12858 -0.36924 1.34382 149 124 64
-0.1126 0.25626 1.92399 149 124 64
-0.1126 -0.25626 1.92399 149 124 64
-0.16802 0.32001 1.92399 149 124 64
-0.68066 0.32001 1.92399 149 124 64
-0.73608 0.25626 1.92399 149 124 64
-0.73608 -0.25626 1.92399 149 124 64
-0.68066 -0.32001 1.92399 149 124 64
-0.16802 -0.32001 1.92399 149 124 64
-0.16802 -0.32001 1.92399 167 140 72
-0.68066 -0.32001 1.92399 167 140 72
-0.68066 0.32001 1.92399 167 140 72
-0.16802 0.32001 1.92399 167 140 72
-0.73608 0.25626 1.92399 167 140 72
-0.73608 -0.25626 1.92399 167 140 72
-0.1126 -0.25626 1.92399 167 140 72
-0.1126 0.25626 1.92399 167 140 72
-0.73608 -0.25626 1.29601 149 124 64
-0.68066 -0.32001 1.29601 149 124 64
-0.68066 0.32001 1.29601 149 124 64
-0.73608 0.25626 1.29601 149 124 64
-0.16802 0.32001 1.29601 149 124 64
-0.1126 0.25626 1.29601 149 124 64
-0.1126 -0.25626 1.29601 149 124 64
-0.16802 -0.32001 1.29601 149 124 64
0.16567 -0.53306 0 110 152 72
0.16567 -0.53306 0.10258 110 152 72
0.32325 -0.53323 0.10258 110 152 72
0.32325 -0.53323 0 110 152 72
0.13742 -0.49393 0 110 152 72
0.35161 -0.49419 0 110 152 72
0.35161 -0.49419 0.10258 110 152 72
0.13742 -0.49393 0.10258 110 152 72
0.135 0.1689 0 110 152 72
0.135 0.1689 0.10258 110 152 72
0.15209 0.19564 0.10258 110 152 72
0.15209 0.19564 0 110 152 72
0.33217 0.19541 0 110 152 72
0.33217 0.19541 0.10258 110 152 72
0.34919 0.16864 0.10258 110 152 72
0.34919 0.16864 0 110 152 72
0.13742 -0.49393 0.10258 115 158 75
0.16809 -0.00786 0.10258 115 158 75
0.31566 -0.00804 0.10258 115 158 75
0.35161 -0.49419 0.10258 115 158 75
0.135 0.1689 0.10258 115 158 75
0.16828 0.14391 0.10258 115 158 75
0.31585 0.14373 0.10258 115 158 75
0.34919 0.16864 0.10258 115 158 75
0.16567 -0.53306 0.10258 115 158 75
0.32325 -0.53323 0.10258 115 158 75
0.33217 0.19541 0.10258 115 158 75
0.15209 0.19564 0.10258 115 158 75
0.16809 -0.00786 0.10258 110 152 72
0.16809 -0.00786 0.24548 110 152 72
0.31566 -0.00804 0.24548 110 152 72
0.31566 -0.00804 0.10258 110 152 72
0.31585 0.14373 0.24548 110 152 72
0.31585 0.14373 0.10258 110 152 72
0.16828 0.14391 0.24548 110 152 72
0.16828 0.14391 0.10258 110 152 72
-0.16567 -0.53306 0 110 152 72
-0.32325 -0.53323 0 110 152 72
-0.32325 -0.53323 0.10258 110 152 72
-0.16567 -0.53306 0.10258 110 152 72
-0.13742 -0.49393 0 110 152 72
-0.35161 -0.49419 0 110 152 72
-0.35161 -0.49419 0.10258 110 152 72
-0.13742 -0.49393 0.10258 110 152 72
-0.135 0.1689 0 110 152 72
-0.135 0.1689 0.10258 110 152 72
-0.15209 0.19564 0.10258 110 152 72
-0.33217 0.19541 0.10258 110 152 72
-0.33217 0.19541 0 110 152 72
-0.15209 0.19564 0 110 152 72
-0.34919 0.16864 0.10258 110 152 72
-0.34919 0.16864 0 110 152 72
-0.13742 -0.49393 0.10258 115 158 75
-0.35161 -0.49419 0.10258 115 158 75
-0.31566 -0.00804 0.10258 115 158 75
-0.16809 -0.00786 0.10258 115 158 75
-0.135 0.1689 0.10258 115 158 75
-0.16828 0.14391 0.10258 115 158 75
-0.34919 0.16864 0.10258 115 158 75
-0.31585 0.14373 0.10258 115 158 75
-0.16567 -0.53306 0.10258 115 158 75
-0.32325 -0.53323 0.10258 115 158 75
-0.33217 0.19541 0.10258 115 158 75
-0.15209 0.19564 0.10258 115 158 75
-0.16809 -0.00786 0.10258 110 152 72
-0.31566 -0.00804 0.10258 110 152 72
-0.31566 -0.00804 0.24548 110 152 72
-0.16809 -0.00786 0.24548 110 152 72
-0.31585 0.14373 0.24548 110 152 72
-0.31585 0.14373 0.10258 110 152 72
-0.16828 0.14391 0.10258 110 152 72
-0.16828 0.14391 0.24548 110 152 72
3 0 2 1
3 0 3 2
3 4 3 0
3 4 5 3
3 5 2 3
3 5 6 2
3 5 7 6
3 5 8 7
3 7 8 9
3 10 9 8
3 11 9 10
3 11 12 9
3 13 9 12
3 7 9 13
3 13 12 14
3 14 12 15
3 14 15 16
3 10 8 17
3 17 5 4
3 17 8 5
3 16 15 18
3 16 18 19
3 19 18 20
3 19 20 21
3 22 19 21
3 22 21 23
3 22 23 24
3 25 24 23
3 25 26 24
3 27 26 25
3 27 28 26
3 29 28 27
3 29 30 28
3 31 28 30
3 31 30 32
3 32 30 33
3 32 33 34
3 35 30 29
3 35 33 30
3 36 33 35
3 34 33 36
3 36 35 37
3 36 37 38
3 36 38 39
3 40 39 38
3 40 38 41
3 42 39 40
3 42 36 39
3 34 36 42
3 43 28 31
3 43 26 28
3 44 45 43
3 44 46 45
3 44 47 46
3 47 44 48
3 48 44 43
3 48 43 31
3 48 31 49
3 49 31 32
3 49 32 50
3 50 32 34
3 50 34 51
3 51 34 42
3 51 42 52
3 52 42 40
3 52 40 41
3 53 46 47
3 53 47 54
3 55 53 54
3 56 53 55
3 53 56 57
3 58 57 56
3 58 59 57
3 60 57 59
3 60 59 61
3 61 59 62
3 61 62 63
3 64 59 58
3 64 62 59
3 65 62 64
3 63 62 65
3 65 64 66
3 65 66 67
3 65 67 68
3 69 65 68
3 63 65 69
3 69 68 70
3 60 71 57
3 57 71 53
3 60 72 71
3 73 72 60
3 73 20 72
3 74 76 75
3 74 77 76
3 77 74 78
3 77 78 79
3 80 82 81
3 80 83 82
3 80 84 83
3 84 80 81
3 84 81 85
3 85 81 11
3 85 11 86
3 86 11 10
3 86 10 87
3 87 10 17
3 87 17 88
3 88 17 4
3 88 4 89
3 89 4 0
3 89 0 1
3 84 90 83
3 84 91 90
3 91 92 90
3 92 91 93
3 93 91 94
3 94 95 93
3 94 96 95
3 96 97 95
3 96 98 97
3 98 99 97
3 98 100 99
3 100 101 99
3 100 102 101
3 102 103 101
3 102 104 103
3 92 105 90
3 92 93 105
3 105 93 106
3 105 106 107
3 93 108 106
3 95 109 108
3 95 97 109
3 110 108 109
3 110 111 108
3 111 106 108
3 111 112 106
3 97 113 109
3 97 99 113
3 112 114 106
3 107 106 114
3 112 22 114
3 115 109 113
3 115 110 109
3 116 115 113
3 99 116 113
3 116 117 115
3 116 118 117
3 116 119 118
3 103 118 119
3 103 104 118
3 101 119 116
3 101 103 119
3 99 101 116
3 120 122 121
3 120 123 122
3 124 123 120
3 124 125 123
3 126 125 124
3 126 127 125
3 81 12 11
3 81 15 12
3 81 128 15
3 81 82 128
3 129 131 130
3 129 132 131
3 133 135 134
3 133 136 135
3 136 133 137
3 136 137 138
3 139 141 140
3 139 142 141
3 143 142 139
3 143 144 142
3 145 144 143
3 145 146 144
3 147 149 148
3 147 150 149
3 151 153 152
3 151 154 153
3 152 155 151
3 152 156 155
3 157 159 158
3 157 160 159
3 161 157 158
3 161 158 162
3 163 161 162
3 163 162 164
3 93 95 108
3 165 167 166
3 165 168 167
3 70 67 169
3 70 68 67
3 170 70 169
3 170 69 70
3 171 69 170
3 171 63 69
3 172 63 171
3 172 61 63
3 173 61 172
3 173 60 61
3 173 73 60
3 73 173 21
3 73 21 20
3 174 176 175
3 174 177 176
3 177 174 178
3 177 178 179
3 180 182 181
3 182 180 183
3 182 183 184
3 185 181 182
3 185 186 181
3 187 186 185
3 187 188 186
3 22 24 114
3 26 189 24
3 23 54 47
3 23 21 54
3 167 130 131
3 167 168 130
3 43 189 26
3 43 45 189
3 15 128 18
3 190 192 191
3 190 193 192
3 193 190 194
3 193 194 195
3 195 196 193
3 195 197 196
3 190 198 194
3 190 199 198
3 200 196 197
3 200 197 201
3 201 195 194
3 201 197 195
3 198 201 194
3 198 202 201
3 203 193 196
3 203 196 204
3 205 202 198
3 199 205 198
3 199 206 205
3 205 206 207
3 205 207 208
3 207 202 208
3 205 208 202
3 207 209 202
3 207 210 209
3 207 211 210
3 207 212 211
3 206 212 207
3 209 201 202
3 209 200 201
3 213 206 199
3 213 214 206
3 206 215 212
3 206 214 215
3 200 209 216
3 216 209 210
3 200 216 217
3 200 217 218
3 199 219 213
3 199 220 219
3 199 190 220
3 221 223 222
3 221 224 223
3 225 224 221
3 225 226 224
3 224 227 223
3 224 226 227
3 227 222 223
3 227 228 222
3 221 228 225
3 221 222 228
3 229 230 192
3 229 192 193
3 229 193 203
3 229 231 230
3 229 232 231
3 231 232 233
3 232 196 233
3 218 233 196
3 218 196 200
3 232 204 196
3 234 236 235
3 234 237 236
3 236 237 238
3 236 238 239
3 238 240 239
3 238 241 240
3 235 241 234
3 235 240 241
3 242 237 234
3 242 243 237
3 244 235 236
3 244 245 235
3 237 246 238
3 237 243 246
3 246 241 238
3 236 247 244
3 236 239 247
3 246 248 241
3 234 248 242
3 234 241 248
3 249 239 240
3 249 247 239
3 235 249 240
3 235 245 249
3 250 252 251
3 250 253 252
3 254 250 251
3 255 250 254
3 250 255 256
3 256 255 257
3 256 257 258
3 258 257 259
3 258 259 260
3 261 260 259
3 261 262 260
3 262 258 260
3 262 256 258
3 262 252 253
3 262 261 252
3 262 250 256
3 262 253 250
3 263 265 264
3 263 266 265
3 263 267 266
3 268 267 263
3 267 268 269
3 268 270 269
3 268 271 270
3 271 272 270
3 271 273 272
3 274 272 273
3 274 273 275
3 275 271 268
3 275 273 271
3 275 265 274
3 275 264 265
3 275 263 264
3 275 268 263
3 276 278 277
3 279 276 277
3 276 279 280
3 276 280 281
3 279 277 282
3 276 283 278
3 283 284 278
3 283 285 284
3 286 285 283
3 286 283 287
3 283 276 287
3 287 276 281
3 288 286 287
3 287 281 288
3 288 289 286
3 281 289 288
3 281 280 289
3 282 277 290
3 282 290 291
3 292 291 290
3 278 284 292
3 292 290 293
3 278 292 293
3 277 293 290
3 277 278 293
3 294 296 295
3 294 297 296
3 298 297 294
3 298 299 297
3 296 297 300
3 297 301 300
3 297 299 301
3 299 302 301
3 300 301 302
3 300 302 303
3 299 304 302
3 305 304 299
3 305 299 298
3 296 300 303
3 306 308 307
3 306 309 308
3 308 309 310
3 308 310 311
3 312 314 313
3 312 315 314
3 316 312 313
3 316 313 317
3 314 318 313
3 313 318 319
3 313 319 317
3 317 319 320
3 318 320 319
3 318 321 320
3 317 320 322
3 323 317 322
3 323 316 317
3 314 321 318
3 324 326 325
3 324 327 326
3 326 328 325
3 326 329 328
3 220 190 191
3 330 332 331
3 330 333 332
3 333 334 332
3 333 335 334
3 336 330 331
3 336 337 330
3 334 335 338
3 334 338 339
3 340 339 338
3 340 341 339
3 342 341 340
3 342 343 341
3 344 343 342
3 344 342 345
3 336 345 337
3 336 344 345
3 346 348 347
3 346 349 348
3 347 348 350
3 347 350 351
3 352 349 346
3 352 353 349
3 354 356 355
3 354 357 356
3 355 356 358
3 357 358 356
3 355 358 359
3 359 358 360
3 357 360 358
3 359 360 361
3 361 355 359
3 361 354 355
3 362 364 363
3 362 365 364
3 363 364 366
3 365 366 364
3 363 366 367
3 367 366 368
3 365 368 366
3 367 368 369
3 369 363 367
3 369 362 363
3 370 372 371
3 370 373 372
3 371 372 374
3 373 374 372
3 371 374 375
3 375 374 376
3 373 376 374
3 375 376 377
3 377 371 375
3 377 370 371
3 378 380 379
3 378 381 380
3 379 380 382
3 381 382 380
3 379 382 383
3 383 382 384
3 381 384 382
3 383 384 385
3 385 379 383
3 385 378 379
3 386 388 387
3 386 389 388
3 387 388 390
3 389 390 388
3 387 390 391
3 391 390 392
3 389 392 390
3 391 392 393
3 393 387 391
3 393 386 387
3 394 396 395
3 394 397 396
3 395 396 398
3 397 398 396
3 395 398 399
3 399 398 400
3 397 400 398
3 399 400 401
3 401 395 399
3 401 394 395
3 402 404 403
3 402 405 404
3 406 402 403
3 406 403 407
3 407 408 406
3 407 409 408
3 404 405 410
3 404 410 411
3 408 409 412
3 408 412 413
3 411 410 414
3 411 414 415
3 414 416 415
3 413 412 416
3 414 417 416
3 413 416 417
3 412 409 418
3 412 418 419
3 416 412 419
3 409 420 418
3 409 407 420
3 407 421 420
3 407 403 421
3 403 422 421
3 403 404 422
3 404 423 422
3 404 411 423
3 411 424 423
3 411 415 424
3 415 425 424
3 415 416 425
3 416 419 425
3 426 428 427
3 426 429 428
3 427 428 430
3 427 430 431
3 432 429 426
3 432 433 429
3 434 436 435
3 434 437 436
3 410 437 434
3 410 405 437
3 405 436 437
3 405 402 436
3 402 438 436
3 435 436 438
3 402 406 438
3 406 439 438
3 406 408 439
3 408 440 439
3 408 413 440
3 413 441 440
3 441 439 440
3 441 438 439
3 435 438 441
3 413 417 441
3 417 435 441
3 417 414 435
3 414 434 435
3 414 410 434
3 442 444 443
3 442 445 444
3 446 442 443
3 446 443 447
3 447 448 446
3 447 449 448
3 444 445 450
3 444 450 451
3 448 449 452
3 448 452 453
3 451 450 454
3 451 454 455
3 454 456 455
3 453 452 456
3 454 457 456
3 453 456 457
3 452 449 458
3 452 458 459
3 456 452 459
3 449 460 458
3 449 447 460
3 447 461 460
3 447 443 461
3 443 462 461
3 443 444 462
3 444 463 462
3 444 451 463
3 451 464 463
3 451 455 464
3 455 465 464
3 455 456 465
3 456 459 465
3 466 468 467
3 466 469 468
3 467 468 470
3 467 470 471
3 472 469 466
3 472 473 469
3 474 476 475
3 474 477 476
3 450 477 474
3 450 445 477
3 445 476 477
3 445 442 476
3 442 478 476
3 475 476 478
3 442 446 478
3 446 479 478
3 446 448 479
3 448 480 479
3 448 453 480
3 453 481 480
3 481 479 480
3 481 478 479
3 475 478 481
3 453 457 481
3 457 475 481
3 457 454 475
3 454 474 475
3 454 450 474
3 482 484 483
3 482 485 484
3 486 482 483
3 486 483 487
3 487 488 486
3 487 489 488
3 484 485 490
3 484 490 491
3 488 489 492
3 488 492 493
3 491 490 494
3 491 494 495
3 494 496 495
3 493 492 496
3 494 497 496
3 493 496 497
3 492 489 498
3 492 498 499
3 496 492 499
3 489 500 498
3 489 487 500
3 487 501 500
3 487 483 501
3 483 502 501
3 483 484 502
3 484 503 502
3 484 491 503
3 491 504 503
3 491 495 504
3 495 505 504
3 495 496 505
3 496 499 505
3 506 508 507
3 506 509 508
3 507 508 510
3 507 510 511
3 512 509 506
3 512 513 509
3 514 516 515
3 514 517 516
3 490 517 514
3 490 485 517
3 485 516 517
3 485 482 516
3 482 518 516
3 515 516 518
3 482 486 518
3 486 519 518
3 486 488 519
3 488 520 519
3 488 493 520
3 493 521 520
3 521 519 520
3 521 518 519
3 515 518 521
3 493 497 521
3 497 515 521
3 497 494 515
3 494 514 515
3 494 490 514
3 522 524 523
3 522 525 524
3 526 522 523
3 526 523 527
3 527 528 526
3 527 529 528
3 524 525 530
3 524 530 531
3 528 529 532
3 528 532 533
3 531 530 534
3 531 534 535
3 534 536 535
3 533 532 536
3 534 537 536
3 533 536 537
3 532 529 538
3 532 538 539
3 536 532 539
3 529 540 538
3 529 527 540
3 527 541 540
3 527 523 541
3 523 542 541
3 523 524 542
3 524 543 542
3 524 531 543
3 531 544 543
3 531 535 544
3 535 545 544
3 535 536 545
3 536 539 545
3 546 548 547
3 546 549 548
3 547 548 550
3 547 550 551
3 552 549 546
3 552 553 549
3 554 556 555
3 554 557 556
3 530 557 554
3 530 525 557
3 525 556 557
3 525 522 556
3 522 558 556
3 555 556 558
3 522 526 558
3 526 559 558
3 526 528 559
3 528 560 559
3 528 533 560
3 533 561 560
3 561 559 560
3 561 558 559
3 555 558 561
3 533 537 561
3 537 555 561
3 537 534 555
3 534 554 555
3 534 530 554
3 562 564 563
3 562 565 564
3 566 565 562
3 566 567 565
3 567 564 565
3 567 568 564
3 569 562 563
3 569 566 562
3 570 566 569
3 570 569 571
3 572 574 573
3 572 575 574
3 576 574 575
3 576 577 574
3 577 573 574
3 567 577 576
3 570 577 567
3 577 570 573
3 570 572 573
3 570 567 566
3 567 576 568
3 570 571 572
3 578 580 579
3 578 581 580
3 582 578 579
3 582 579 583
3 581 584 580
3 581 585 584
3 585 583 584
3 585 582 583
3 581 578 586
3 581 586 587
3 582 585 588
3 582 588 589
3 590 592 591
3 590 593 592
3 593 594 592
3 593 595 594
3 595 596 594
3 595 597 596
3 597 591 596
3 597 590 591
3 598 600 599
3 598 601 600
3 602 598 599
3 602 599 603
3 603 599 600
3 603 600 604
3 605 598 602
3 605 601 598
3 606 605 602
3 606 607 605
3 608 610 609
3 608 611 610
3 612 609 610
3 612 610 613
3 613 610 611
3 603 612 613
3 606 603 613
3 613 611 606
3 606 611 608
3 606 602 603
3 603 604 612
3 606 608 607
3 614 616 615
3 614 617 616
3 618 617 614
3 618 619 617
3 615 621 620
3 620 621 619
3 615 616 621
3 620 619 618
3 615 622 614
3 615 623 622
3 618 624 620
3 618 625 624
3 626 628 627
3 626 629 628
3 627 628 630
3 627 630 631
3 631 633 632
3 631 630 633
3 632 633 629
3 632 629 626
