ply
format ascii 1.0
element vertex 848
property float x
property float y
property float z
property uchar red
property uchar green
property uchar blue
element face 1050
property list uchar int vertex_index
end_header
0.7051 -0.18008 0.52184 171 223 120
0.65423 -0.22641 0.52184 171 223 120
0.65423 -0.22641 0.87489 171 223 120
0.7051 -0.18008 0.87489 171 223 120
0.7051 0.18008 0.52184 171 223 120
0.7051 0.18008 0.87489 171 223 120
0.30316 -0.22641 0.52184 171 223 120
0.30316 -0.22641 0.87489 171 223 120
0.25229 -0.18008 0.52184 171 223 120
0.25229 -0.18008 0.87489 171 223 120
0.25229 0.18008 0.87489 171 223 120
0.25229 0.18008 0.52184 171 223 120
0.61912 -0.18113 0.9152 171 223 120
0.65982 -0.14407 0.9152 171 223 120
0.65982 0.14407 0.9152 171 223 120
0.65423 0.22641 0.87489 171 223 120
0.65423 0.22641 0.52184 171 223 120
0.30316 0.22641 0.87489 171 223 120
0.30316 0.22641 0.52184 171 223 120
0.61912 0.18113 0.9152 171 223 120
0.33826 0.18113 0.9152 171 223 120
0.29757 0.14407 0.9152 171 223 120
0.61849 0.18031 0.47343 171 223 120
0.659 0.14342 0.47343 171 223 120
0.3389 0.18031 0.47343 171 223 120
0.29839 0.14342 0.47343 171 223 120
0.29839 -0.14342 0.47343 171 223 120
0.3389 -0.18031 0.47343 171 223 120
0.659 -0.14342 0.47343 171 223 120
0.61849 -0.18031 0.47343 171 223 120
0.29757 -0.14407 0.9152 171 223 120
0.33826 -0.18113 0.9152 171 223 120
0.33826 0.18113 0.9152 177 231 124
0.61912 0.18113 0.9152 177 231 124
0.65982 0.14407 0.9152 177 231 124
0.29757 0.14407 0.9152 177 231 124
0.65982 -0.14407 0.9152 177 231 124
0.29757 -0.14407 0.9152 177 231 124
0.61912 -0.18113 0.9152 177 231 124
0.33826 -0.18113 0.9152 177 231 124
0.69111 -0.07983 0.62329 254 233 232
0.69111 -0.07983 0.78295 254 233 232
0.88765 -0.07983 0.78295 254 233 232
0.88765 -0.07983 0.62329 254 233 232
0.69111 0.07983 0.62329 254 233 232
0.88765 0.07983 0.62329 254 233 232
0.88765 0.07983 0.15718 254 233 232
0.88765 -0.07983 0.15718 254 233 232
1.05396 -0.07983 0.62329 254 233 232
1.05396 -0.07983 0.15718 254 233 232
1.05396 0.07983 0.62329 254 233 232
1.05396 0.07983 0.15718 254 233 232
0.69111 0.07983 0.78295 254 233 232
0.88765 0.07983 0.78295 254 233 232
0.69111 -0.07983 0.78295 255 238 238
0.69111 0.07983 0.78295 255 238 238
0.88765 0.07983 0.78295 255 238 238
0.88765 -0.07983 0.78295 255 238 238
1.05396 -0.07983 0.75368 243 244 246
1.02677 -0.07983 0.78295 243 244 246
1.02677 0.07983 0.78295 243 244 246
1.05396 0.07983 0.75368 243 244 246
0.88765 0.07983 0.78295 243 244 246
0.88765 -0.07983 0.78295 243 244 246
1.05396 -0.07983 0.75368 238 239 241
1.05396 -0.07983 0.62329 238 239 241
0.88765 -0.07983 0.62329 238 239 241
1.05396 0.07983 0.75368 238 239 241
1.05396 0.07983 0.62329 238 239 241
1.02677 -0.07983 0.78295 238 239 241
0.88765 -0.07983 0.78295 238 239 241
0.88765 0.07983 0.62329 238 239 241
1.02677 0.07983 0.78295 238 239 241
0.88765 0.07983 0.78295 238 239 241
0.88798 0.14595 0.15718 94 137 169
0.88798 0.14595 0.00322 94 137 169
1.05363 0.14595 0.00322 94 137 169
1.05363 0.14595 0.15718 94 137 169
1.09704 0.10765 0.15718 94 137 169
1.09704 0.10765 0.00322 94 137 169
1.09966 -0.58039 0.00322 94 137 169
1.09966 -0.43807 0.15718 94 137 169
0.84456 0.10765 0.00322 94 137 169
0.84456 0.10765 0.15718 94 137 169
1.09966 -0.6126 0.03027 94 137 169
1.09966 -0.43807 0.27808 94 137 169
1.09966 -0.6126 0.38082 94 137 169
1.09966 -0.5838 0.40835 94 137 169
1.09486 -0.32619 0.27808 94 137 169
1.09486 -0.32619 0.40835 94 137 169
0.84195 -0.58039 0.00322 94 137 169
0.84195 -0.43807 0.15718 94 137 169
1.07208 -0.29323 0.29304 94 137 169
1.07208 -0.29323 0.39338 94 137 169
0.86953 -0.29323 0.39338 94 137 169
0.86953 -0.29323 0.29304 94 137 169
0.84675 -0.32619 0.27808 94 137 169
0.84675 -0.32619 0.40835 94 137 169
0.84195 -0.43807 0.27808 94 137 169
0.84195 -0.6126 0.03027 94 137 169
0.84195 -0.43807 0.15718 99 144 178
0.84195 -0.6126 0.38082 94 137 169
0.84195 -0.5838 0.40835 94 137 169
0.88765 0.07983 0.15718 99 144 178
0.88798 0.14595 0.15718 99 144 178
1.05363 0.14595 0.15718 99 144 178
1.05396 0.07983 0.15718 99 144 178
1.09704 0.10765 0.15718 99 144 178
1.05396 -0.07983 0.15718 99 144 178
0.84456 0.10765 0.15718 99 144 178
0.88765 -0.07983 0.15718 99 144 178
1.09966 -0.43807 0.15718 99 144 178
1.09966 -0.6126 0.38082 99 144 178
0.84195 -0.6126 0.38082 99 144 178
0.84195 -0.5838 0.40835 99 144 178
1.09966 -0.5838 0.40835 99 144 178
1.07208 -0.29323 0.39338 99 144 178
1.09486 -0.32619 0.40835 99 144 178
0.84675 -0.32619 0.40835 99 144 178
0.86953 -0.29323 0.39338 99 144 178
-0.61639 -0.44281 1.63092 254 233 232
-0.61639 -0.44281 2.4457 254 233 232
-0.54125 -0.51966 2.4457 254 233 232
-0.54125 -0.51966 1.63092 254 233 232
-0.61639 0.44281 1.63092 254 233 232
-0.61639 0.44281 2.4457 254 233 232
-0.49113 -0.46203 2.50576 254 233 232
-0.55875 -0.39286 2.50576 254 233 232
-0.55875 0.39286 2.50576 254 233 232
-0.54125 0.51966 2.4457 254 233 232
-0.54125 0.51966 1.63092 254 233 232
0.54125 0.51966 2.4457 254 233 232
0.54125 0.51966 1.63092 254 233 232
0.61639 0.44281 2.4457 254 233 232
0.61639 0.44281 1.63092 254 233 232
-0.49113 0.46203 2.50576 254 233 232
0.49113 0.46203 2.50576 254 233 232
0.55875 0.39286 2.50576 254 233 232
-0.49113 0.46203 1.57162 254 233 232
-0.55875 0.39286 1.57162 254 233 232
-0.55875 0.02344 1.57162 254 233 232
0.49113 0.46203 1.57162 254 233 232
0.55875 0.39286 1.57162 254 233 232
0.55875 0.02344 1.57162 254 233 232
0.55875 -0.02047 1.57162 254 233 232
0.61639 -0.44281 1.63092 254 233 232
0.55875 -0.39286 1.57162 254 233 232
0.49113 -0.46203 1.57162 254 233 232
0.54125 -0.51966 1.63092 254 233 232
0.54125 -0.51966 2.4457 254 233 232
0.61639 -0.44281 2.4457 254 233 232
0.55875 -0.39286 2.50576 254 233 232
0.49113 -0.46203 2.50576 254 233 232
-0.49113 -0.46203 1.57162 254 233 232
-0.55875 -0.39286 1.57162 254 233 232
-0.20508 -0.51966 1.69954 254 233 232
-0.20508 -0.51966 1.92604 254 233 232
0.20508 -0.51966 1.69954 254 233 232
0.20508 -0.51966 1.92604 254 233 232
-0.55875 -0.02047 1.57162 254 233 232
0.55875 -0.39286 2.50576 255 238 238
0.49113 -0.46203 2.50576 255 238 238
-0.49113 -0.46203 2.50576 255 238 238
-0.55875 -0.39286 2.50576 255 238 238
0.55875 0.39286 2.50576 255 238 238
-0.55875 0.39286 2.50576 255 238 238
0.49113 0.46203 2.50576 255 238 238
-0.49113 0.46203 2.50576 255 238 238
0.50287 0.35358 0.66444 243 244 246
0.44201 0.41582 0.66444 243 244 246
-0.44201 0.41582 0.66444 243 244 246
-0.50287 0.35358 0.66444 243 244 246
-0.55875 0.39286 0.72286 243 244 246
-0.49113 0.46203 0.72286 243 244 246
-0.55875 0.39286 1.57162 243 244 246
-0.49113 0.46203 1.57162 243 244 246
0.49113 0.46203 0.72286 243 244 246
0.49113 0.46203 1.57162 243 244 246
0.55875 0.39286 0.72286 243 244 246
0.55875 0.39286 1.57162 243 244 246
0.55875 0.02344 0.72286 243 244 246
0.55875 0.02344 1.57162 243 244 246
0.50287 0.02344 0.66444 243 244 246
-0.55875 0.02344 0.72286 243 244 246
-0.55875 0.02344 1.57162 243 244 246
-0.50287 0.02344 0.66444 243 244 246
-0.20508 -0.40375 1.92604 162 105 127
0.20508 -0.40375 1.92604 162 105 127
0.20508 -0.40375 1.69954 162 105 127
-0.20508 -0.40375 1.69954 162 105 127
-0.20508 -0.51966 1.92604 162 105 127
-0.20508 -0.51966 1.69954 162 105 127
0.20508 -0.51966 1.69954 162 105 127
0.20508 -0.51966 1.92604 162 105 127
0.49113 -0.46203 1.57162 243 244 246
0.49113 -0.46203 0.72286 243 244 246
-0.49113 -0.46203 0.72286 243 244 246
-0.49113 -0.46203 1.57162 243 244 246
-0.55875 -0.39286 0.72286 243 244 246
-0.55875 -0.39286 1.57162 243 244 246
-0.55875 -0.02047 0.72286 243 244 246
-0.55875 -0.02047 1.57162 243 244 246
0.55875 -0.39286 1.57162 243 244 246
0.55875 -0.39286 0.72286 243 244 246
-0.44201 -0.41582 0.66444 243 244 246
0.44201 -0.41582 0.66444 243 244 246
-0.50287 -0.35358 0.66444 243 244 246
-0.50287 -0.02047 0.66444 243 244 246
0.50287 -0.35358 0.66444 243 244 246
0.50287 -0.02047 0.66444 243 244 246
0.55875 -0.02047 0.72286 243 244 246
0.55875 -0.02047 1.57162 243 244 246
-0.55875 -0.02047 0.72286 206 207 209
-0.55875 0.02344 0.72286 206 207 209
-0.55875 0.02344 1.57162 206 207 209
-0.55875 -0.02047 1.57162 206 207 209
-0.50287 -0.02047 0.66444 206 207 209
-0.50287 0.02344 0.66444 206 207 209
0.50287 -0.02047 0.66444 206 207 209
0.50287 0.02344 0.66444 206 207 209
0.55875 -0.02047 0.72286 206 207 209
0.55875 0.02344 0.72286 206 207 209
0.55875 -0.02047 1.57162 206 207 209
0.55875 0.02344 1.57162 206 207 209
0.09234 -0.5439 2.08298 65 65 65
0.09234 -0.5439 2.16394 65 65 65
0.13869 -0.5439 2.16394 65 65 65
0.13869 -0.5439 2.08298 65 65 65
0.0821 -0.5439 2.22705 255 255 255
0.0821 -0.51332 2.22705 255 255 255
0.23151 -0.51332 2.22705 255 255 255
0.23151 -0.5439 2.22705 255 255 255
0.23151 -0.5439 1.99591 255 255 255
0.23151 -0.51332 1.99591 255 255 255
0.0821 -0.51332 1.99591 255 255 255
0.0821 -0.5439 1.99591 255 255 255
0.13869 -0.5439 2.08298 255 255 255
0.09234 -0.5439 2.08298 255 255 255
0.13869 -0.5439 2.16394 255 255 255
0.09234 -0.5439 2.16394 255 255 255
-0.09234 -0.5439 2.08298 65 65 65
-0.13869 -0.5439 2.08298 65 65 65
-0.13869 -0.5439 2.16394 65 65 65
-0.09234 -0.5439 2.16394 65 65 65
-0.0821 -0.5439 2.22705 255 255 255
-0.23151 -0.5439 2.22705 255 255 255
-0.23151 -0.51332 2.22705 255 255 255
-0.0821 -0.51332 2.22705 255 255 255
-0.23151 -0.5439 1.99591 255 255 255
-0.23151 -0.51332 1.99591 255 255 255
-0.0821 -0.51332 1.99591 255 255 255
-0.0821 -0.5439 1.99591 255 255 255
-0.13869 -0.5439 2.08298 255 255 255
-0.09234 -0.5439 2.08298 255 255 255
-0.13869 -0.5439 2.16394 255 255 255
-0.09234 -0.5439 2.16394 255 255 255
0.26995 -0.53193 1.757 185 229 141
0.26995 -0.53193 2.02483 185 229 141
0.53778 -0.53193 2.02483 185 229 141
0.53778 -0.53193 1.757 185 229 141
0.53778 -0.51488 2.02483 185 229 141
0.26995 -0.51488 2.02483 185 229 141
0.26995 -0.51488 1.757 185 229 141
0.53778 -0.51488 1.757 185 229 141
-0.26995 -0.53193 1.757 185 229 141
-0.53778 -0.53193 1.757 185 229 141
-0.53778 -0.53193 2.02483 185 229 141
-0.26995 -0.53193 2.02483 185 229 141
-0.53778 -0.51488 2.02483 185 229 141
-0.26995 -0.51488 2.02483 185 229 141
-0.26995 -0.51488 1.757 185 229 141
-0.53778 -0.51488 1.757 185 229 141
-0.1436 -0.48182 1.68927 206 137 163
-0.1436 -0.48182 1.812 206 137 163
0.1436 -0.48182 1.812 206 137 163
0.1436 -0.48182 1.68927 206 137 163
0.1436 -0.40044 1.812 206 137 163
-0.1436 -0.40044 1.812 206 137 163
0.1436 -0.40044 1.68927 206 137 163
-0.1436 -0.40044 1.68927 206 137 163
0.80473 -0.17963 2.13788 94 137 169
0.59817 -0.17963 2.43708 94 137 169
0.99078 -0.17963 2.43708 94 137 169
0.99078 -0.17963 2.13788 94 137 169
0.99078 0.17963 2.13788 94 137 169
0.80473 0.17963 2.13788 94 137 169
1.24236 -0.17963 2.13788 94 137 169
0.99078 -0.17963 1.97044 94 137 169
0.99078 0.17963 1.97044 94 137 169
1.24236 0.17963 1.97044 94 137 169
1.24236 0.17963 2.13788 94 137 169
1.24236 -0.17963 1.97044 94 137 169
0.99078 0.17963 2.43708 94 137 169
0.59817 0.17963 2.43708 94 137 169
0.80473 -0.17963 1.97044 94 137 169
0.80473 0.17963 1.97044 94 137 169
1.52854 0.17963 2.43708 94 137 169
1.42151 0.17963 2.13788 94 137 169
1.56846 0.17963 2.39598 94 137 169
0.59817 -0.17963 1.97044 94 137 169
0.59817 0.17963 1.97044 94 137 169
1.56846 0.17963 1.90131 94 137 169
1.56846 -0.17963 1.90131 94 137 169
1.56846 -0.17963 2.39598 94 137 169
1.42151 0.17963 1.90131 94 137 169
1.42151 -0.17963 2.13788 94 137 169
1.42151 -0.17963 1.90131 94 137 169
1.52854 -0.17963 2.43708 94 137 169
1.43532 0.17963 1.87414 94 137 169
1.43532 -0.17963 1.87414 94 137 169
1.55466 0.17963 1.87414 94 137 169
1.55466 -0.17963 1.87414 94 137 169
0.59817 0.17963 2.43708 99 144 178
0.99078 0.17963 2.43708 99 144 178
0.99078 -0.17963 2.43708 99 144 178
0.59817 -0.17963 2.43708 99 144 178
1.52854 -0.17963 2.43708 99 144 178
1.52854 0.17963 2.43708 99 144 178
1.56846 0.17963 2.39598 99 144 178
1.56846 -0.17963 2.39598 99 144 178
0.59817 0.17963 1.94327 94 137 169
0.59817 -0.17963 1.94327 94 137 169
0.78532 -0.17963 1.94327 94 137 169
0.78532 0.17963 1.94327 94 137 169
1.01442 -0.17963 1.94327 94 137 169
1.21872 -0.17963 1.94327 94 137 169
1.21872 0.17963 1.94327 94 137 169
1.01442 0.17963 1.94327 94 137 169
-0.80473 -0.17963 2.13788 94 137 169
-0.99078 -0.17963 2.43708 94 137 169
-0.59817 -0.17963 2.43708 94 137 169
-0.99078 -0.17963 2.13788 94 137 169
-0.99078 0.17963 2.13788 94 137 169
-0.80473 0.17963 2.13788 94 137 169
-1.24236 -0.17963 2.13788 94 137 169
-0.99078 -0.17963 1.97044 94 137 169
-0.99078 0.17963 1.97044 94 137 169
-1.24236 0.17963 1.97044 94 137 169
-1.24236 0.17963 2.13788 94 137 169
-1.24236 -0.17963 1.97044 94 137 169
-0.99078 0.17963 2.43708 94 137 169
-0.59817 0.17963 2.43708 94 137 169
-0.80473 -0.17963 1.97044 94 137 169
-0.80473 0.17963 1.97044 94 137 169
-1.52854 0.17963 2.43708 94 137 169
-1.42151 0.17963 2.13788 94 137 169
-1.56846 0.17963 2.39598 94 137 169
-0.59817 0.17963 1.97044 94 137 169
-1.56846 0.17963 1.90131 94 137 169
-1.56846 -0.17963 1.90131 94 137 169
-1.56846 -0.17963 2.39598 94 137 169
-1.42151 0.17963 1.90131 94 137 169
-1.42151 -0.17963 2.13788 94 137 169
-1.42151 -0.17963 1.90131 94 137 169
-1.52854 -0.17963 2.43708 94 137 169
-1.55466 -0.17963 1.87414 94 137 169
-1.43532 -0.17963 1.87414 94 137 169
-1.55466 0.17963 1.87414 94 137 169
-1.43532 0.17963 1.87414 94 137 169
-0.59817 0.17963 2.43708 99 144 178
-0.59817 -0.17963 2.43708 99 144 178
-0.99078 -0.17963 2.43708 99 144 178
-0.99078 0.17963 2.43708 99 144 178
-1.52854 -0.17963 2.43708 99 144 178
-1.52854 0.17963 2.43708 99 144 178
-1.56846 0.17963 2.39598 99 144 178
-1.56846 -0.17963 2.39598 99 144 178
-0.59818 0.17963 1.94327 94 137 169
-0.78532 0.17963 1.94327 94 137 169
-0.78532 -0.17963 1.94327 94 137 169
-0.59818 -0.17963 1.94327 94 137 169
-0.59817 -0.17963 1.97044 94 137 169
-1.01442 -0.17963 1.94327 94 137 169
-1.01442 0.17963 1.94327 94 137 169
-1.21872 0.17963 1.94327 94 137 169
-1.21872 -0.17963 1.94327 94 137 169
0.20189 -0.59899 1.39989 171 223 120
0.25248 -0.59899 1.34179 171 223 120
-0.25248 -0.59899 1.34179 171 223 120
-0.20189 -0.59899 1.39989 171 223 120
0.23752 -0.54468 1.44444 171 223 120
-0.23752 -0.54468 1.44444 171 223 120
-0.29704 -0.54468 1.37609 171 223 120
-0.25248 -0.59899 0.95302 171 223 120
-0.29704 -0.54468 0.91872 171 223 120
-0.29704 -0.44678 0.91872 171 223 120
-0.23752 -0.54468 0.85037 171 223 120
-0.23752 -0.44678 0.85037 171 223 120
-0.29704 -0.44678 1.37609 171 223 120
0.23752 -0.44678 0.85037 171 223 120
0.23752 -0.54468 0.85037 171 223 120
0.29704 -0.44678 0.91872 171 223 120
0.29704 -0.54468 0.91872 171 223 120
0.29704 -0.44678 1.37609 171 223 120
0.29704 -0.54468 1.37609 171 223 120
-0.20189 -0.59899 0.89492 171 223 120
0.20189 -0.59899 0.89492 171 223 120
0.25248 -0.59899 0.95302 171 223 120
-0.29704 -0.54468 1.37609 177 231 124
-0.29704 -0.44678 1.37609 177 231 124
-0.23752 -0.44678 1.44444 177 231 124
-0.23752 -0.54468 1.44444 177 231 124
0.23752 -0.54468 1.44444 177 231 124
0.23752 -0.44678 1.44444 177 231 124
0.29704 -0.54468 1.37609 177 231 124
0.29704 -0.44678 1.37609 177 231 124
1.07033 -0.24783 1.20398 171 223 120
1.07033 -0.24783 1.69507 171 223 120
1.07033 0.24783 1.69507 171 223 120
1.07033 0.24783 1.20398 171 223 120
1.01444 -0.30048 1.69507 171 223 120
1.01444 -0.30048 1.20398 171 223 120
0.5429 -0.30048 1.69507 171 223 120
0.5429 -0.30048 1.20398 171 223 120
0.99149 -0.27101 1.73456 171 223 120
0.5429 -0.27101 1.73456 171 223 120
1.04086 -0.22451 1.73456 171 223 120
1.04086 0.22451 1.73456 171 223 120
0.5429 -0.27131 1.16283 171 223 120
0.99172 -0.27131 1.16283 171 223 120
1.04115 -0.22474 1.16283 171 223 120
1.04115 0.22474 1.16283 171 223 120
1.01444 0.30048 1.20398 171 223 120
1.01444 0.30048 1.69507 171 223 120
0.5429 0.30048 1.20398 171 223 120
0.5429 0.30048 1.69507 171 223 120
0.5429 0.27101 1.73456 171 223 120
0.99149 0.27101 1.73456 171 223 120
0.99172 0.27131 1.16283 171 223 120
0.5429 0.27131 1.16283 171 223 120
0.99149 0.27101 1.73456 177 231 124
1.04086 0.22451 1.73456 177 231 124
1.04086 -0.22451 1.73456 177 231 124
0.99149 -0.27101 1.73456 177 231 124
0.5429 0.27101 1.73456 177 231 124
0.5429 -0.27101 1.73456 177 231 124
1.05721 -0.09113 1.36721 254 233 232
1.05721 -0.09113 1.55132 254 233 232
1.22146 -0.09113 1.55132 254 233 232
1.22146 -0.09113 1.36721 254 233 232
1.05721 0.09298 1.36721 254 233 232
1.35192 0.09298 1.36721 254 233 232
1.41051 0.03466 1.36721 254 233 232
1.22146 -0.39911 1.36721 254 233 232
1.22146 -0.39911 1.55132 254 233 232
1.41051 -0.39911 1.36721 254 233 232
1.05721 -0.09113 1.55132 255 238 238
1.05721 0.09298 1.55132 255 238 238
1.35192 0.09298 1.55132 255 238 238
1.22146 -0.09113 1.55132 255 238 238
1.41051 0.03466 1.55132 255 238 238
1.22146 -0.39911 1.55132 255 238 238
1.41051 -0.39911 1.55132 255 238 238
1.05721 0.09298 1.55132 254 233 232
1.35192 0.09298 1.55132 254 233 232
1.41051 0.03466 1.55132 254 233 232
1.41051 -0.39911 1.55132 254 233 232
0.84043 -0.56122 1.56942 238 239 241
0.84043 -0.56122 1.39423 238 239 241
0.84043 -0.39911 1.39423 238 239 241
0.84043 -0.39911 1.56942 238 239 241
0.87252 -0.39911 1.59644 238 239 241
0.87252 -0.39911 1.36721 238 239 241
1.01 -0.39911 1.59644 238 239 241
1.01 -0.39911 1.36721 238 239 241
0.87252 -0.56122 1.36721 238 239 241
1.01 -0.56122 1.36721 238 239 241
1.22146 -0.39911 1.36721 238 239 241
1.22146 -0.39911 1.55132 238 239 241
1.01 -0.39911 1.65615 238 239 241
1.41051 -0.39911 1.55132 238 239 241
1.641 -0.39911 1.65615 238 239 241
1.01 -0.39911 1.78739 238 239 241
1.641 -0.39911 1.78739 238 239 241
1.01 -0.56122 1.78739 238 239 241
1.01 -0.56122 1.65615 238 239 241
1.641 -0.56122 1.65615 238 239 241
1.641 -0.56122 1.40126 238 239 241
1.641 -0.39911 1.40126 238 239 241
1.41051 -0.39911 1.36721 238 239 241
1.60903 -0.39911 1.36721 238 239 241
1.60903 -0.56122 1.36721 238 239 241
1.641 -0.56122 1.78739 238 239 241
1.6072 -0.39911 1.81917 238 239 241
1.48094 -0.39911 1.81917 238 239 241
1.16462 -0.39911 1.81917 238 239 241
1.0438 -0.39911 1.81917 238 239 241
1.16462 -0.39911 1.91033 238 239 241
1.48094 -0.39911 1.91033 238 239 241
1.48094 -0.56122 1.81917 238 239 241
1.48094 -0.56122 1.91033 238 239 241
1.16462 -0.56122 1.91033 238 239 241
1.16462 -0.56122 1.81917 238 239 241
1.19055 -0.39911 1.94036 238 239 241
1.455 -0.39911 1.94036 238 239 241
1.01 -0.56122 1.59644 238 239 241
1.6072 -0.56122 1.81917 238 239 241
1.0438 -0.56122 1.81917 238 239 241
0.87252 -0.56122 1.59644 238 239 241
1.455 -0.56122 1.94036 238 239 241
1.19055 -0.56122 1.94036 238 239 241
1.6072 -0.39911 1.81917 243 244 246
1.6072 -0.56122 1.81917 243 244 246
1.48094 -0.56122 1.81917 243 244 246
1.48094 -0.39911 1.81917 243 244 246
1.641 -0.56122 1.78739 243 244 246
1.641 -0.39911 1.78739 243 244 246
1.01 -0.39911 1.78739 243 244 246
1.0438 -0.39911 1.81917 243 244 246
1.0438 -0.56122 1.81917 243 244 246
1.01 -0.56122 1.78739 243 244 246
1.16462 -0.56122 1.81917 243 244 246
1.16462 -0.39911 1.81917 243 244 246
1.01 -0.56122 1.59644 243 244 246
0.87252 -0.56122 1.59644 243 244 246
0.87252 -0.39911 1.59644 243 244 246
1.01 -0.39911 1.59644 243 244 246
0.84043 -0.39911 1.56942 243 244 246
0.84043 -0.56122 1.56942 243 244 246
1.455 -0.56122 1.94036 243 244 246
1.19055 -0.56122 1.94036 243 244 246
1.19055 -0.39911 1.94036 243 244 246
1.455 -0.39911 1.94036 243 244 246
1.48094 -0.56122 1.91033 243 244 246
1.48094 -0.39911 1.91033 243 244 246
1.16462 -0.39911 1.91033 243 244 246
1.16462 -0.56122 1.91033 243 244 246
1.04118 -0.57863 1.66748 185 229 141
1.04118 -0.57863 1.77943 185 229 141
1.15313 -0.57863 1.77943 185 229 141
1.15313 -0.57863 1.66748 185 229 141
1.15313 -0.55489 1.77943 185 229 141
1.04118 -0.55489 1.77943 185 229 141
1.04118 -0.55489 1.66748 185 229 141
1.15313 -0.55489 1.66748 185 229 141
1.49642 -0.57863 1.66748 185 229 141
1.49642 -0.57863 1.77943 185 229 141
1.60837 -0.57863 1.77943 185 229 141
1.60837 -0.57863 1.66748 185 229 141
1.60837 -0.55489 1.77943 185 229 141
1.49642 -0.55489 1.77943 185 229 141
1.49642 -0.55489 1.66748 185 229 141
1.60837 -0.55489 1.66748 185 229 141
1.19272 -0.57863 1.7918 185 229 141
1.19272 -0.57863 1.90375 185 229 141
1.30467 -0.57863 1.90375 185 229 141
1.30467 -0.57863 1.7918 185 229 141
1.30467 -0.55489 1.90375 185 229 141
1.19272 -0.55489 1.90375 185 229 141
1.19272 -0.55489 1.7918 185 229 141
1.30467 -0.55489 1.7918 185 229 141
1.34481 -0.57863 1.7918 185 229 141
1.34481 -0.57863 1.90375 185 229 141
1.45676 -0.57863 1.90375 185 229 141
1.45676 -0.57863 1.7918 185 229 141
1.45676 -0.55489 1.90375 185 229 141
1.34481 -0.55489 1.90375 185 229 141
1.34481 -0.55489 1.7918 185 229 141
1.45676 -0.55489 1.7918 185 229 141
0.8707 -0.57863 1.4248 185 229 141
0.8707 -0.57863 1.53675 185 229 141
0.98266 -0.57863 1.53675 185 229 141
0.98266 -0.57863 1.4248 185 229 141
0.98266 -0.55489 1.53675 185 229 141
0.8707 -0.55489 1.53675 185 229 141
0.8707 -0.55489 1.4248 185 229 141
0.98266 -0.55489 1.4248 185 229 141
-1.07033 -0.24783 1.20398 171 223 120
-1.07033 0.24783 1.20398 171 223 120
-1.07033 0.24783 1.69507 171 223 120
-1.07033 -0.24783 1.69507 171 223 120
-1.01444 -0.30048 1.69507 171 223 120
-1.01444 -0.30048 1.20398 171 223 120
-0.5429 -0.30048 1.69507 171 223 120
-0.5429 -0.30048 1.20398 171 223 120
-0.99149 -0.27101 1.73456 171 223 120
-0.5429 -0.27101 1.73456 171 223 120
-1.04086 -0.22451 1.73456 171 223 120
-1.04086 0.22451 1.73456 171 223 120
-0.5429 -0.27131 1.16283 171 223 120
-0.99172 -0.27131 1.16283 171 223 120
-1.04115 -0.22474 1.16283 171 223 120
-1.04115 0.22474 1.16283 171 223 120
-1.01444 0.30048 1.20398 171 223 120
-1.01444 0.30048 1.69507 171 223 120
-0.5429 0.30048 1.20398 171 223 120
-0.5429 0.30048 1.69507 171 223 120
-0.5429 0.27101 1.73456 171 223 120
-0.99149 0.27101 1.73456 171 223 120
-0.99172 0.27131 1.16283 171 223 120
-0.5429 0.27131 1.16283 171 223 120
-0.99149 0.27101 1.73456 177 231 124
-0.99149 -0.27101 1.73456 177 231 124
-1.04086 -0.22451 1.73456 177 231 124
-1.04086 0.22451 1.73456 177 231 124
-0.5429 0.27101 1.73456 177 231 124
-0.5429 -0.27101 1.73456 177 231 124
-1.05721 -0.09113 1.36721 254 233 232
-1.22146 -0.09113 1.36721 254 233 232
-1.22146 -0.09113 1.55132 254 233 232
-1.05721 -0.09113 1.55132 254 233 232
-1.05721 0.09298 1.36721 254 233 232
-1.35192 0.09298 1.36721 254 233 232
-1.41051 0.03466 1.36721 254 233 232
-1.22146 -0.39911 1.36721 254 233 232
-1.22146 -0.39911 1.55132 254 233 232
-1.41051 -0.39911 1.36721 254 233 232
-1.05721 -0.09113 1.55132 255 238 238
-1.22146 -0.09113 1.55132 255 238 238
-1.35192 0.09298 1.55132 255 238 238
-1.05721 0.09298 1.55132 255 238 238
-1.41051 0.03466 1.55132 255 238 238
-1.22146 -0.39911 1.55132 255 238 238
-1.41051 -0.39911 1.55132 255 238 238
-1.05721 0.09298 1.55132 254 233 232
-1.35192 0.09298 1.55132 254 233 232
-1.41051 0.03466 1.55132 254 233 232
-1.41051 -0.39911 1.55132 254 233 232
-0.84043 -0.56122 1.56942 238 239 241
-0.84043 -0.39911 1.56942 238 239 241
-0.84043 -0.39911 1.39423 238 239 241
-0.84043 -0.56122 1.39423 238 239 241
-0.87252 -0.39911 1.59644 238 239 241
-0.87252 -0.39911 1.36721 238 239 241
-1.01 -0.39911 1.59644 238 239 241
-1.01 -0.39911 1.36721 238 239 241
-0.87252 -0.56122 1.36721 238 239 241
-1.01 -0.56122 1.36721 238 239 241
-1.22146 -0.39911 1.36721 238 239 241
-1.22146 -0.39911 1.55132 238 239 241
-1.01 -0.39911 1.65615 238 239 241
-1.41051 -0.39911 1.55132 238 239 241
-1.641 -0.39911 1.65615 238 239 241
-1.01 -0.39911 1.78739 238 239 241
-1.641 -0.39911 1.78739 238 239 241
-1.01 -0.56122 1.78739 238 239 241
-1.01 -0.56122 1.65615 238 239 241
-1.641 -0.56122 1.65615 238 239 241
-1.641 -0.56122 1.40126 238 239 241
-1.641 -0.39911 1.40126 238 239 241
-1.41051 -0.39911 1.36721 238 239 241
-1.60903 -0.39911 1.36721 238 239 241
-1.60903 -0.56122 1.36721 238 239 241
-1.641 -0.56122 1.78739 238 239 241
-1.0438 -0.39911 1.81917 238 239 241
-1.16462 -0.39911 1.81917 238 239 241
-1.48094 -0.39911 1.81917 238 239 241
-1.6072 -0.39911 1.81917 238 239 241
-1.16462 -0.39911 1.91033 238 239 241
-1.48094 -0.39911 1.91033 238 239 241
-1.48094 -0.56122 1.81917 238 239 241
-1.48094 -0.56122 1.91033 238 239 241
-1.16462 -0.56122 1.91033 238 239 241
-1.16462 -0.56122 1.81917 238 239 241
-1.19055 -0.39911 1.94036 238 239 241
-1.455 -0.39911 1.94036 238 239 241
-1.01 -0.56122 1.59644 238 239 241
-1.0438 -0.56122 1.81917 238 239 241
-1.6072 -0.56122 1.81917 238 239 241
-0.87252 -0.56122 1.59644 238 239 241
-1.455 -0.56122 1.94036 238 239 241
-1.19055 -0.56122 1.94036 238 239 241
-1.6072 -0.39911 1.81917 243 244 246
-1.48094 -0.39911 1.81917 243 244 246
-1.48094 -0.56122 1.81917 243 244 246
-1.6072 -0.56122 1.81917 243 244 246
-1.641 -0.56122 1.78739 243 244 246
-1.641 -0.39911 1.78739 243 244 246
-1.01 -0.39911 1.78739 243 244 246
-1.01 -0.56122 1.78739 243 244 246
-1.0438 -0.56122 1.81917 243 244 246
-1.0438 -0.39911 1.81917 243 244 246
-1.16462 -0.56122 1.81917 243 244 246
-1.16462 -0.39911 1.81917 243 244 246
-1.01 -0.56122 1.59644 243 244 246
-1.01 -0.39911 1.59644 243 244 246
-0.87252 -0.39911 1.59644 243 244 246
-0.87252 -0.56122 1.59644 243 244 246
-0.84043 -0.39911 1.56942 243 244 246
-0.84043 -0.56122 1.56942 243 244 246
-1.455 -0.56122 1.94036 243 244 246
-1.455 -0.39911 1.94036 243 244 246
-1.19055 -0.39911 1.94036 243 244 246
-1.19055 -0.56122 1.94036 243 244 246
-1.48094 -0.56122 1.91033 243 244 246
-1.48094 -0.39911 1.91033 243 244 246
-1.16462 -0.39911 1.91033 243 244 246
-1.16462 -0.56122 1.91033 243 244 246
-1.04118 -0.57863 1.66748 185 229 141
-1.15313 -0.57863 1.66748 185 229 141
-1.15313 -0.57863 1.77943 185 229 141
-1.04118 -0.57863 1.77943 185 229 141
-1.15313 -0.55489 1.77943 185 229 141
-1.04118 -0.55489 1.77943 185 229 141
-1.04118 -0.55489 1.66748 185 229 141
-1.15313 -0.55489 1.66748 185 229 141
-1.49642 -0.57863 1.66748 185 229 141
-1.60837 -0.57863 1.66748 185 229 141
-1.60837 -0.57863 1.77943 185 229 141
-1.49642 -0.57863 1.77943 185 229 141
-1.60837 -0.55489 1.77943 185 229 141
-1.49642 -0.55489 1.77943 185 229 141
-1.49642 -0.55489 1.66748 185 229 141
-1.60837 -0.55489 1.66748 185 229 141
-1.19272 -0.57863 1.7918 185 229 141
-1.30467 -0.57863 1.7918 185 229 141
-1.30467 -0.57863 1.90375 185 229 141
-1.19272 -0.57863 1.90375 185 229 141
-1.30467 -0.55489 1.90375 185 229 141
-1.19272 -0.55489 1.90375 185 229 141
-1.19272 -0.55489 1.7918 185 229 141
-1.30467 -0.55489 1.7918 185 229 141
-1.34481 -0.57863 1.7918 185 229 141
-1.45676 -0.57863 1.7918 185 229 141
-1.45676 -0.57863 1.90375 185 229 141
-1.34481 -0.57863 1.90375 185 229 141
-1.45676 -0.55489 1.90375 185 229 141
-1.34481 -0.55489 1.90375 185 229 141
-1.34481 -0.55489 1.7918 185 229 141
-1.45676 -0.55489 1.7918 185 229 141
-0.8707 -0.57863 1.4248 185 229 141
-0.98266 -0.57863 1.4248 185 229 141
-0.98266 -0.57863 1.53675 185 229 141
-0.8707 -0.57863 1.53675 185 229 141
-0.98266 -0.55489 1.53675 185 229 141
-0.8707 -0.55489 1.53675 185 229 141
-0.8707 -0.55489 1.4248 185 229 141
-0.98266 -0.55489 1.4248 185 229 141
-0.7051 -0.18008 0.52184 171 223 120
-0.7051 -0.18008 0.87489 171 223 120
-0.65423 -0.22641 0.87489 171 223 120
-0.65423 -0.22641 0.52184 171 223 120
-0.7051 0.18008 0.52184 171 223 120
-0.7051 0.18008 0.87489 171 223 120
-0.30316 -0.22641 0.52184 171 223 120
-0.30316 -0.22641 0.87489 171 223 120
-0.25229 -0.18008 0.52184 171 223 120
-0.25229 -0.18008 0.87489 171 223 120
-0.25229 0.18008 0.87489 171 223 120
-0.25229 0.18008 0.52184 171 223 120
-0.61912 -0.18113 0.9152 171 223 120
-0.65982 -0.14407 0.9152 171 223 120
-0.65982 0.14407 0.9152 171 223 120
-0.65423 0.22641 0.87489 171 223 120
-0.65423 0.22641 0.52184 171 223 120
-0.30316 0.22641 0.87489 171 223 120
-0.30316 0.22641 0.52184 171 223 120
-0.61912 0.18113 0.9152 171 223 120
-0.33826 0.18113 0.9152 171 223 120
-0.29757 0.14407 0.9152 171 223 120
-0.61849 0.18031 0.47343 171 223 120
-0.659 0.14342 0.47343 171 223 120
-0.3389 0.18031 0.47343 171 223 120
-0.29839 0.14342 0.47343 171 223 120
-0.29839 -0.14342 0.47343 171 223 120
-0.3389 -0.18031 0.47343 171 223 120
-0.659 -0.14342 0.47343 171 223 120
-0.61849 -0.18031 0.47343 171 223 120
-0.29757 -0.14407 0.9152 171 223 120
-0.33826 -0.18113 0.9152 171 223 120
-0.33826 0.18113 0.9152 177 231 124
-0.29757 0.14407 0.9152 177 231 124
-0.65982 0.14407 0.9152 177 231 124
-0.61912 0.18113 0.9152 177 231 124
-0.65982 -0.14407 0.9152 177 231 124
-0.29757 -0.14407 0.9152 177 231 124
-0.61912 -0.18113 0.9152 177 231 124
-0.33826 -0.18113 0.9152 177 231 124
-0.69111 -0.07983 0.62329 254 233 232
-0.88765 -0.07983 0.62329 254 233 232
-0.88765 -0.07983 0.78295 254 233 232
-0.69111 -0.07983 0.78295 254 233 232
-0.69111 0.07983 0.62329 254 233 232
-0.88765 0.07983 0.62329 254 233 232
-0.88765 0.07983 0.15718 254 233 232
-0.88765 -0.07983 0.15718 254 233 232
-1.05396 -0.07983 0.62329 254 233 232
-1.05396 -0.07983 0.15718 254 233 232
-1.05396 0.07983 0.62329 254 233 232
-1.05396 0.07983 0.15718 254 233 232
-0.69111 0.07983 0.78295 254 233 232
-0.88765 0.07983 0.78295 254 233 232
-0.69111 -0.07983 0.78295 255 238 238
-0.88765 -0.07983 0.78295 255 238 238
-0.88765 0.07983 0.78295 255 238 238
-0.69111 0.07983 0.78295 255 238 238
-1.05396 -0.07983 0.75368 243 244 246
-1.05396 0.07983 0.75368 243 244 246
-1.02677 0.07983 0.78295 243 244 246
-1.02677 -0.07983 0.78295 243 244 246
-0.88765 0.07983 0.78295 243 244 246
-0.88765 -0.07983 0.78295 243 244 246
-1.05396 -0.07983 0.75368 238 239 241
-0.88765 -0.07983 0.62329 238 239 241
-1.05396 -0.07983 0.62329 238 239 241
-1.05396 0.07983 0.75368 238 239 241
-1.05396 0.07983 0.62329 238 239 241
-1.02677 -0.07983 0.78295 238 239 241
-0.88765 -0.07983 0.78295 238 239 241
-0.88765 0.07983 0.62329 238 239 241
-0.88765 0.07983 0.78295 238 239 241
-1.02677 0.07983 0.78295 238 239 241
-0.88798 0.14595 0.15718 94 137 169
-1.05363 0.14595 0.15718 94 137 169
-1.05363 0.14595 0.00322 94 137 169
-0.88798 0.14595 0.00322 94 137 169
-1.09704 0.10765 0.15718 94 137 169
-1.09704 0.10765 0.00322 94 137 169
-1.09966 -0.58039 0.00322 94 137 169
-1.09966 -0.43807 0.15718 94 137 169
-0.84456 0.10765 0.00322 94 137 169
-0.84456 0.10765 0.15718 94 137 169
-1.09966 -0.6126 0.03027 94 137 169
-1.09966 -0.43807 0.27808 94 137 169
-1.09966 -0.6126 0.38082 94 137 169
-1.09966 -0.5838 0.40835 94 137 169
-1.09486 -0.32619 0.27808 94 137 169
-1.09486 -0.32619 0.40835 94 137 169
-0.84195 -0.58039 0.00322 94 137 169
-0.84195 -0.43807 0.15718 94 137 169
-1.07208 -0.29323 0.29304 94 137 169
-1.07208 -0.29323 0.39338 94 137 169
-0.86953 -0.29323 0.39338 94 137 169
-0.86953 -0.29323 0.29304 94 137 169
-0.84675 -0.32619 0.27808 94 137 169
-0.84675 -0.32619 0.40835 94 137 169
-0.84195 -0.43807 0.27808 94 137 169
-0.84195 -0.6126 0.03027 94 137 169
-0.84195 -0.43807 0.15718 99 144 178
-0.84195 -0.6126 0.38082 94 137 169
-0.84195 -0.5838 0.40835 94 137 169
-0.88765 0.07983 0.15718 99 144 178
-1.05396 0.07983 0.15718 99 144 178
-1.05363 0.14595 0.15718 99 144 178
-0.88798 0.14595 0.15718 99 144 178
-1.09704 0.10765 0.15718 99 144 178
-1.05396 -0.07983 0.15718 99 144 178
-0.84456 0.10765 0.15718 99 144 178
-0.88765 -0.07983 0.15718 99 144 178
-1.09966 -0.43807 0.15718 99 144 178
-1.09966 -0.6126 0.38082 99 144 178
-1.09966 -0.5838 0.40835 99 144 178
-0.84195 -0.5838 0.40835 99 144 178
-0.84195 -0.6126 0.38082 99 144 178
-1.07208 -0.29323 0.39338 99 144 178
-0.86953 -0.29323 0.39338 99 144 178
-0.84675 -0.32619 0.40835 99 144 178
-1.09486 -0.32619 0.40835 99 144 178
3 0 2 1
3 0 3 2
3 4 3 0
3 4 5 3
3 2 6 1
3 2 7 6
3 7 8 6
3 7 9 8
3 8 9 10
3 8 10 11
3 3 12 2
3 3 13 12
3 5 13 3
3 5 14 13
3 15 14 5
3 5 16 15
3 5 4 16
3 16 17 15
3 16 18 17
3 18 10 17
3 18 11 10
3 17 19 15
3 15 19 14
3 17 20 19
3 10 20 17
3 9 21 10
3 10 21 20
3 4 22 16
3 4 23 22
3 16 24 18
3 16 22 24
3 18 25 11
3 18 24 25
3 25 22 23
3 25 24 22
3 11 25 26
3 26 25 23
3 11 26 8
3 8 26 27
3 27 26 28
3 26 23 28
3 27 28 29
3 6 27 29
3 8 27 6
3 6 29 1
3 1 29 28
3 1 28 0
3 0 28 23
3 0 23 4
3 9 30 21
3 7 30 9
3 7 31 30
3 2 31 7
3 2 12 31
3 32 34 33
3 32 35 34
3 35 36 34
3 35 37 36
3 37 38 36
3 37 39 38
3 40 42 41
3 40 43 42
3 44 43 40
3 44 45 43
3 43 45 46
3 43 46 47
3 48 43 47
3 48 47 49
3 50 48 49
3 50 49 51
3 45 50 51
3 45 51 46
3 52 45 44
3 52 53 45
3 54 56 55
3 54 57 56
3 58 60 59
3 58 61 60
3 62 59 60
3 62 63 59
3 64 66 65
3 65 67 64
3 65 68 67
3 69 66 64
3 70 66 69
3 71 73 72
3 71 72 67
3 71 67 68
3 74 76 75
3 74 77 76
3 78 76 77
3 78 79 76
3 80 79 78
3 80 78 81
3 82 74 75
3 76 82 75
3 76 79 82
3 82 83 74
3 80 81 84
3 84 81 85
3 84 85 86
3 86 85 87
3 87 85 88
3 87 88 89
3 90 83 82
3 79 90 82
3 79 80 90
3 90 91 83
3 85 81 91
3 89 88 92
3 89 92 93
3 92 94 93
3 92 95 94
3 95 92 88
3 96 94 95
3 95 88 96
3 96 97 94
3 98 97 96
3 85 91 98
3 88 98 96
3 88 85 98
3 98 91 99
3 100 90 99
3 98 99 101
3 98 102 97
3 98 101 102
3 103 105 104
3 103 106 105
3 105 106 107
3 107 106 108
3 103 104 109
3 109 110 103
3 108 111 107
3 111 108 110
3 111 110 100
3 100 110 109
3 80 99 90
3 80 84 99
3 84 101 99
3 84 86 101
3 112 114 113
3 112 115 114
3 116 118 117
3 116 119 118
3 115 117 118
3 115 118 114
3 120 122 121
3 120 123 122
3 124 120 121
3 124 121 125
3 121 122 126
3 121 126 127
3 125 121 127
3 125 127 128
3 129 125 128
3 125 129 130
3 125 130 124
3 130 129 131
3 130 131 132
3 132 131 133
3 132 133 134
3 131 129 135
3 129 128 135
3 131 135 136
3 133 131 136
3 133 136 137
3 124 130 138
3 124 138 139
3 140 124 139
3 130 141 138
3 130 132 141
3 132 142 141
3 132 134 142
3 134 143 142
3 134 144 143
3 134 145 144
3 144 145 146
3 145 147 146
3 145 148 147
3 149 148 145
3 149 145 150
3 145 133 150
3 145 134 133
3 149 150 151
3 149 151 152
3 122 149 152
3 122 152 126
3 150 137 151
3 150 133 137
3 148 153 147
3 148 123 153
3 123 154 153
3 123 120 154
3 122 123 155
3 122 155 156
3 149 122 156
3 123 157 155
3 123 148 157
3 148 158 157
3 148 149 158
3 149 156 158
3 120 159 154
3 120 140 159
3 120 124 140
3 160 162 161
3 160 163 162
3 164 163 160
3 164 165 163
3 166 165 164
3 166 167 165
3 168 170 169
3 168 171 170
3 172 170 171
3 172 173 170
3 173 169 170
3 174 173 172
3 174 175 173
3 175 176 173
3 173 176 169
3 176 168 169
3 175 177 176
3 177 178 176
3 176 178 168
3 177 179 178
3 179 180 178
3 179 181 180
3 178 182 168
3 178 180 182
3 182 171 168
3 183 174 172
3 183 184 174
3 185 172 171
3 185 183 172
3 182 185 171
3 186 188 187
3 186 189 188
3 190 189 186
3 190 191 189
3 191 188 189
3 191 192 188
3 192 187 188
3 192 193 187
3 193 186 187
3 193 190 186
3 194 196 195
3 194 197 196
3 197 198 196
3 197 199 198
3 199 200 198
3 199 201 200
3 202 194 195
3 202 195 203
3 195 196 204
3 195 204 205
3 203 195 205
3 196 206 204
3 196 198 206
3 205 204 206
3 198 207 206
3 198 200 207
3 203 205 208
3 205 206 208
3 208 206 207
3 208 207 209
3 209 203 208
3 210 202 203
3 209 210 203
3 210 211 202
3 212 214 213
3 212 215 214
3 216 212 213
3 216 213 217
3 218 216 217
3 218 217 219
3 219 220 218
3 219 221 220
3 221 222 220
3 221 223 222
3 224 226 225
3 224 227 226
3 228 230 229
3 228 231 230
3 232 230 231
3 232 233 230
3 234 233 232
3 234 228 229
3 234 232 235
3 234 235 228
3 235 232 236
3 235 236 237
3 228 235 237
3 232 238 236
3 232 231 238
3 231 239 238
3 231 228 239
3 228 237 239
3 240 242 241
3 240 243 242
3 244 246 245
3 244 247 246
3 248 245 246
3 248 246 249
3 250 248 249
3 250 247 244
3 250 251 248
3 250 244 251
3 251 252 248
3 251 253 252
3 244 253 251
3 248 254 245
3 248 252 254
3 245 255 244
3 245 254 255
3 244 255 253
3 256 258 257
3 256 259 258
3 257 258 260
3 259 260 258
3 257 260 261
3 262 259 256
3 262 257 261
3 262 256 257
3 262 263 259
3 259 263 260
3 264 266 265
3 264 267 266
3 267 268 266
3 265 266 268
3 267 269 268
3 270 264 265
3 270 267 264
3 270 269 267
3 270 265 271
3 265 268 271
3 272 274 273
3 272 275 274
3 273 274 276
3 275 276 274
3 273 276 277
3 275 278 276
3 279 273 277
3 279 272 273
3 280 282 281
3 282 280 283
3 280 284 283
3 280 285 284
3 282 283 286
3 286 283 287
3 283 288 287
3 283 284 288
3 284 289 288
3 284 290 289
3 290 291 289
3 290 286 291
3 286 287 291
3 290 284 292
3 285 292 284
3 285 293 292
3 285 280 294
3 285 294 295
3 290 292 296
3 290 296 297
3 296 298 297
3 280 299 294
3 285 300 293
3 285 295 300
3 280 281 299
3 297 298 301
3 298 302 301
3 298 303 302
3 297 301 304
3 305 297 304
3 305 304 306
3 302 305 306
3 303 305 302
3 307 305 303
3 307 286 305
3 286 297 305
3 286 290 297
3 282 286 307
3 306 304 308
3 306 308 309
3 302 306 309
3 304 310 308
3 304 301 310
3 309 308 310
3 309 310 311
3 302 309 311
3 301 311 310
3 301 302 311
3 312 314 313
3 312 315 314
3 313 314 316
3 313 316 317
3 316 318 317
3 316 319 318
3 320 322 321
3 320 323 322
3 300 323 320
3 300 295 323
3 295 322 323
3 295 294 322
3 294 321 322
3 294 299 321
3 324 326 325
3 324 327 326
3 288 326 327
3 287 288 327
3 287 327 324
3 288 289 326
3 289 325 326
3 289 291 325
3 291 287 324
3 291 324 325
3 328 330 329
3 329 331 328
3 328 331 332
3 328 332 333
3 329 334 331
3 334 335 331
3 331 335 336
3 331 336 332
3 332 336 337
3 332 337 338
3 338 339 334
3 338 337 339
3 334 339 335
3 338 340 332
3 333 332 340
3 333 340 341
3 333 342 328
3 333 343 342
3 338 344 340
3 338 345 344
3 344 345 346
3 333 341 347
3 333 347 343
3 345 348 346
3 346 348 349
3 346 349 350
3 345 351 348
3 352 351 345
3 352 353 351
3 349 353 352
3 350 349 352
3 354 350 352
3 354 352 334
3 334 352 345
3 334 345 338
3 329 354 334
3 353 349 355
3 353 355 356
3 356 355 357
3 349 357 355
3 356 357 358
3 349 348 357
3 348 351 358
3 348 358 357
3 351 356 358
3 351 353 356
3 359 361 360
3 359 362 361
3 362 363 361
3 362 364 363
3 363 364 365
3 363 365 366
3 367 369 368
3 367 370 369
3 371 369 370
3 371 342 369
3 342 368 369
3 328 342 371
3 328 371 330
3 342 343 368
3 372 374 373
3 372 375 374
3 335 375 372
3 335 339 375
3 339 374 375
3 339 337 374
3 337 373 374
3 337 336 373
3 336 372 373
3 336 335 372
3 376 378 377
3 376 379 378
3 380 379 376
3 380 381 379
3 381 378 379
3 381 382 378
3 382 383 378
3 377 378 383
3 382 384 383
3 385 384 382
3 385 386 384
3 385 387 386
3 385 382 388
3 386 387 389
3 386 389 390
3 390 389 391
3 390 391 392
3 392 391 393
3 392 393 394
3 384 395 383
3 384 386 395
3 386 396 395
3 386 390 396
3 390 397 396
3 390 392 397
3 397 395 396
3 397 383 395
3 392 377 397
3 392 394 377
3 377 383 397
3 394 376 377
3 394 380 376
3 398 400 399
3 398 401 400
3 400 401 402
3 400 402 403
3 403 402 404
3 403 404 405
3 406 408 407
3 406 409 408
3 410 406 407
3 410 411 406
3 412 411 410
3 412 413 411
3 412 410 414
3 412 414 415
3 410 416 414
3 410 407 416
3 407 417 416
3 407 408 417
3 411 413 418
3 411 418 419
3 406 411 419
3 406 419 420
3 409 406 420
3 409 420 421
3 422 409 421
3 422 408 409
3 422 423 408
3 424 423 422
3 424 425 423
3 423 425 426
3 423 426 427
3 408 423 427
3 408 427 417
3 424 422 428
3 422 421 428
3 424 428 429
3 429 419 418
3 429 428 419
3 421 419 428
3 421 420 419
3 430 432 431
3 430 433 432
3 434 433 430
3 434 435 433
3 436 438 437
3 436 439 438
3 440 439 436
3 440 441 439
3 439 441 442
3 438 439 443
3 438 443 444
3 439 445 443
3 439 442 445
3 446 448 447
3 446 449 448
3 448 449 450
3 450 449 451
3 450 451 452
3 453 441 440
3 453 454 441
3 442 441 454
3 442 454 455
3 442 455 456
3 442 456 445
3 457 459 458
3 457 460 459
3 461 459 460
3 461 462 459
3 462 458 459
3 463 462 461
3 463 464 462
3 464 465 462
3 462 465 458
3 464 466 465
3 466 464 467
3 468 464 463
3 468 467 464
3 468 463 469
3 470 468 469
3 470 469 471
3 471 469 472
3 471 472 473
3 469 474 472
3 469 475 474
3 476 471 473
3 477 471 476
3 477 478 471
3 478 470 471
3 479 470 478
3 479 478 480
3 480 478 477
3 481 479 480
3 480 477 481
3 476 473 482
3 472 483 473
3 483 472 484
3 484 472 485
3 485 472 486
3 484 485 487
3 484 487 488
3 489 484 488
3 489 488 490
3 485 491 487
3 485 492 491
3 488 487 493
3 488 493 494
3 466 479 481
3 466 467 479
3 477 466 481
3 477 495 466
3 476 495 477
3 476 475 495
3 475 476 482
3 475 482 474
3 496 474 482
3 474 496 489
3 474 489 492
3 474 492 497
3 466 495 498
3 466 498 465
3 465 498 457
3 465 457 458
3 492 489 490
3 492 490 491
3 491 490 499
3 491 499 500
3 501 503 502
3 501 504 503
3 505 501 502
3 505 506 501
3 507 509 508
3 507 510 509
3 511 508 509
3 511 512 508
3 469 495 475
3 469 463 495
3 513 515 514
3 513 516 515
3 514 515 517
3 514 517 518
3 519 521 520
3 519 522 521
3 523 522 519
3 523 524 522
3 525 520 521
3 525 526 520
3 527 529 528
3 527 530 529
3 528 529 531
3 530 531 529
3 528 531 532
3 533 530 527
3 533 528 532
3 533 527 528
3 533 534 530
3 530 534 531
3 535 537 536
3 535 538 537
3 536 537 539
3 538 539 537
3 536 539 540
3 541 538 535
3 541 536 540
3 541 535 536
3 541 542 538
3 538 542 539
3 543 545 544
3 543 546 545
3 544 545 547
3 546 547 545
3 544 547 548
3 549 546 543
3 549 544 548
3 549 543 544
3 549 550 546
3 546 550 547
3 551 553 552
3 551 554 553
3 552 553 555
3 554 555 553
3 552 555 556
3 557 554 551
3 557 552 556
3 557 551 552
3 557 558 554
3 554 558 555
3 559 561 560
3 559 562 561
3 560 561 563
3 562 563 561
3 560 563 564
3 565 562 559
3 565 560 564
3 565 559 560
3 565 566 562
3 562 566 563
3 567 569 568
3 567 570 569
3 571 570 567
3 571 567 572
3 573 571 572
3 573 572 574
3 573 575 571
3 573 576 575
3 571 577 570
3 571 575 577
3 570 578 569
3 570 577 578
3 572 579 574
3 572 580 579
3 567 580 572
3 567 581 580
3 568 581 567
3 568 582 581
3 583 582 568
3 583 568 569
3 583 569 584
3 585 583 584
3 585 584 586
3 584 587 586
3 584 588 587
3 569 588 584
3 569 578 588
3 585 589 583
3 583 589 582
3 585 590 589
3 590 579 580
3 590 580 589
3 582 580 581
3 582 589 580
3 591 593 592
3 591 594 593
3 595 591 592
3 595 592 596
3 597 599 598
3 597 600 599
3 601 597 598
3 601 598 602
3 598 603 602
3 599 604 598
3 599 605 604
3 598 606 603
3 598 604 606
3 607 609 608
3 607 610 609
3 609 611 608
3 611 612 608
3 611 613 612
3 614 602 615
3 614 601 602
3 603 615 602
3 603 616 615
3 603 617 616
3 603 606 617
3 618 620 619
3 618 621 620
3 622 619 620
3 622 620 623
3 623 620 621
3 624 622 623
3 624 623 625
3 625 623 626
3 623 621 626
3 625 626 627
3 627 628 625
3 629 625 628
3 629 624 625
3 629 630 624
3 631 630 629
3 631 632 630
3 632 633 630
3 632 634 633
3 630 633 635
3 630 635 636
3 637 634 632
3 638 637 632
3 638 632 639
3 639 632 631
3 640 639 631
3 640 641 639
3 641 638 639
3 642 641 640
3 641 642 638
3 637 643 634
3 634 644 633
3 644 634 645
3 645 634 646
3 646 634 647
3 646 648 645
3 646 649 648
3 650 649 646
3 650 651 649
3 645 648 652
3 645 652 653
3 649 654 648
3 649 655 654
3 627 640 628
3 627 642 640
3 638 642 627
3 638 627 656
3 637 638 656
3 637 656 636
3 636 643 637
3 636 635 643
3 657 643 635
3 643 657 653
3 643 653 650
3 643 650 658
3 627 659 656
3 627 626 659
3 626 618 659
3 626 621 618
3 653 651 650
3 653 652 651
3 652 660 651
3 652 661 660
3 662 664 663
3 662 665 664
3 666 662 667
3 666 665 662
3 668 670 669
3 668 671 670
3 672 671 673
3 672 670 671
3 630 656 624
3 630 636 656
3 674 676 675
3 674 677 676
3 677 678 676
3 677 679 678
3 680 682 681
3 680 683 682
3 684 681 685
3 684 680 681
3 686 682 683
3 686 683 687
3 688 690 689
3 688 691 690
3 691 692 690
3 689 690 692
3 691 693 692
3 694 688 689
3 694 691 688
3 694 693 691
3 694 689 695
3 689 692 695
3 696 698 697
3 696 699 698
3 699 700 698
3 697 698 700
3 699 701 700
3 702 696 697
3 702 699 696
3 702 701 699
3 702 697 703
3 697 700 703
3 704 706 705
3 704 707 706
3 707 708 706
3 705 706 708
3 707 709 708
3 710 704 705
3 710 707 704
3 710 709 707
3 710 705 711
3 705 708 711
3 712 714 713
3 712 715 714
3 715 716 714
3 713 714 716
3 715 717 716
3 718 712 713
3 718 715 712
3 718 717 715
3 718 713 719
3 713 716 719
3 720 722 721
3 720 723 722
3 723 724 722
3 721 722 724
3 723 725 724
3 726 720 721
3 726 723 720
3 726 725 723
3 726 721 727
3 721 724 727
3 343 367 368
3 343 347 367
3 728 730 729
3 728 731 730
3 732 728 729
3 732 729 733
3 730 731 734
3 730 734 735
3 735 734 736
3 735 736 737
3 736 738 737
3 736 739 738
3 729 730 740
3 729 740 741
3 733 729 741
3 733 741 742
3 743 733 742
3 733 743 744
3 733 744 732
3 744 743 745
3 744 745 746
3 746 745 738
3 746 738 739
3 745 743 747
3 743 742 747
3 745 747 748
3 738 745 748
3 737 738 749
3 738 748 749
3 732 744 750
3 732 750 751
3 744 752 750
3 744 746 752
3 746 753 752
3 746 739 753
3 753 750 752
3 753 751 750
3 739 754 753
3 754 751 753
3 739 736 754
3 736 755 754
3 755 756 754
3 754 756 751
3 755 757 756
3 734 757 755
3 736 734 755
3 734 731 757
3 731 756 757
3 731 728 756
3 728 751 756
3 728 732 751
3 737 749 758
3 735 737 758
3 735 758 759
3 730 735 759
3 730 759 740
3 760 762 761
3 760 763 762
3 761 762 764
3 761 764 765
3 765 764 766
3 765 766 767
3 768 770 769
3 768 771 770
3 772 768 769
3 772 769 773
3 769 774 773
3 769 775 774
3 776 775 769
3 776 777 775
3 778 777 776
3 778 779 777
3 773 779 778
3 773 774 779
3 780 773 781
3 780 772 773
3 782 784 783
3 782 785 784
3 786 788 787
3 786 789 788
3 790 789 791
3 790 788 789
3 792 794 793
3 794 792 795
3 794 795 796
3 797 792 793
3 798 797 793
3 799 801 800
3 799 795 801
3 799 796 795
3 802 804 803
3 802 805 804
3 806 803 804
3 806 804 807
3 808 806 807
3 808 809 806
3 810 805 802
3 804 810 807
3 804 805 810
3 810 802 811
3 808 812 809
3 812 813 809
3 812 814 813
3 814 815 813
3 815 816 813
3 815 817 816
3 818 810 811
3 807 818 808
3 807 810 818
3 818 811 819
3 813 819 809
3 817 820 816
3 817 821 820
3 820 821 822
3 820 822 823
3 823 816 820
3 824 823 822
3 823 824 816
3 824 822 825
3 826 824 825
3 813 826 819
3 816 826 813
3 816 824 826
3 826 827 819
3 828 827 818
3 826 829 827
3 826 825 830
3 826 830 829
3 831 833 832
3 831 834 833
3 833 835 832
3 835 836 832
3 831 837 834
3 837 831 838
3 836 835 839
3 839 838 836
3 839 828 838
3 828 837 838
3 808 827 812
3 808 818 827
3 812 827 829
3 812 829 814
3 840 842 841
3 840 843 842
3 844 846 845
3 844 847 846
3 841 846 847
3 841 842 846
