ply
format ascii 1.0
element vertex 669
property float x
property float y
property float z
property uchar red
property uchar green
property uchar blue
element face 910
property list uchar int vertex_index
end_header
-0.51066 -0.33871 2.45885 173 194 117
-0.51066 -0.33871 3.37108 173 194 117
-0.44081 -0.39893 3.37108 173 194 117
-0.44081 -0.39893 2.45885 173 194 117
-0.51066 0.56217 2.45885 173 194 117
-0.51066 0.56217 3.37108 173 194 117
-0.44081 0.62238 2.45885 173 194 117
-0.44081 0.62238 3.37108 173 194 117
0.44081 -0.39893 2.45885 173 194 117
0.44081 -0.39893 3.37108 173 194 117
0.44081 0.62238 3.37108 173 194 117
0.44081 0.62238 2.45885 173 194 117
-0.45959 0.51713 3.42 173 194 117
-0.39673 0.57132 3.42 173 194 117
0.39673 0.57132 3.42 173 194 117
-0.45959 -0.29367 3.42 173 194 117
-0.39673 -0.34786 3.42 173 194 117
0.39673 -0.34786 3.42 173 194 117
0.51066 0.56217 3.37108 173 194 117
0.51066 0.56217 2.45885 173 194 117
0.51066 -0.33871 2.45885 173 194 117
0.51066 -0.33871 3.37108 173 194 117
0.45959 -0.29367 3.42 173 194 117
0.45959 0.51713 3.42 173 194 117
0.4681 0.52464 2.413 173 194 117
0.40408 0.57983 2.413 173 194 117
0.4681 -0.30118 2.413 173 194 117
0.40408 -0.35637 2.413 173 194 117
-0.40408 -0.35637 2.413 173 194 117
-0.4681 -0.30118 2.413 173 194 117
-0.4681 0.52464 2.413 173 194 117
-0.40408 0.57983 2.413 173 194 117
0.45959 -0.29367 3.42 181 199 128
0.39673 -0.34786 3.42 181 199 128
-0.39673 -0.34786 3.42 181 199 128
-0.45959 -0.29367 3.42 181 199 128
0.45959 0.51713 3.42 181 199 128
-0.45959 0.51713 3.42 181 199 128
0.39673 0.57132 3.42 181 199 128
-0.39673 0.57132 3.42 181 199 128
-0.13835 -0.13091 1.52606 173 194 117
-0.13835 -0.13091 2.34707 173 194 117
-0.07549 -0.1851 2.34707 173 194 117
-0.07549 -0.1851 1.52606 173 194 117
-0.13835 0.67989 1.52606 173 194 117
-0.13835 0.67989 2.34707 173 194 117
-0.07549 0.73408 1.52606 173 194 117
-0.07549 0.73408 2.34707 173 194 117
0.71798 -0.1851 1.52606 173 194 117
0.71798 -0.1851 2.34707 173 194 117
0.71798 0.73408 2.34707 173 194 117
0.71798 0.73408 1.52606 173 194 117
-0.09239 0.63935 2.39109 173 194 117
-0.03582 0.68812 2.39109 173 194 117
0.6783 0.68812 2.39109 173 194 117
-0.09239 -0.09037 2.39109 173 194 117
-0.03582 -0.13914 2.39109 173 194 117
0.6783 -0.13914 2.39109 173 194 117
0.73487 -0.09037 2.39109 173 194 117
0.78083 -0.13091 2.34707 173 194 117
0.78083 -0.13091 1.52606 173 194 117
0.78083 0.67989 2.34707 173 194 117
0.78083 0.67989 1.52606 173 194 117
0.73487 0.63935 2.39109 173 194 117
0.74253 0.6461 1.4848 173 194 117
0.68491 0.69578 1.4848 173 194 117
0.74253 -0.09713 1.4848 173 194 117
0.68491 -0.1468 1.4848 173 194 117
-0.04243 -0.1468 1.4848 173 194 117
-0.10005 -0.09713 1.4848 173 194 117
-0.10005 0.6461 1.4848 173 194 117
-0.04243 0.69578 1.4848 173 194 117
0.73487 -0.09037 2.39109 181 199 128
0.6783 -0.13914 2.39109 181 199 128
-0.03582 -0.13914 2.39109 181 199 128
-0.09239 -0.09037 2.39109 181 199 128
0.73487 0.63935 2.39109 181 199 128
-0.09239 0.63935 2.39109 181 199 128
0.6783 0.68812 2.39109 181 199 128
-0.03582 0.68812 2.39109 181 199 128
-0.35833 -0.57308 0.67818 173 194 117
-0.35833 -0.57308 1.40797 173 194 117
-0.30246 -0.62125 1.40797 173 194 117
-0.30246 -0.62125 0.67818 173 194 117
-0.35833 0.14763 0.67818 173 194 117
-0.35833 0.14763 1.40797 173 194 117
-0.30246 0.1958 0.67818 173 194 117
-0.30246 0.1958 1.40797 173 194 117
0.40284 -0.62125 0.67818 173 194 117
0.40284 -0.62125 1.40797 173 194 117
0.40284 0.1958 1.40797 173 194 117
0.40284 0.1958 0.67818 173 194 117
-0.31748 0.1116 1.4471 173 194 117
-0.2672 0.15495 1.4471 173 194 117
0.36758 0.15495 1.4471 173 194 117
-0.31748 -0.53704 1.4471 173 194 117
-0.2672 -0.5804 1.4471 173 194 117
0.36758 -0.5804 1.4471 173 194 117
0.45871 0.14763 1.40797 173 194 117
0.45871 0.14763 0.67818 173 194 117
0.45871 -0.57308 0.67818 173 194 117
0.45871 -0.57308 1.40797 173 194 117
0.41786 -0.53704 1.4471 173 194 117
0.41786 0.1116 1.4471 173 194 117
0.42467 0.1176 0.6415 173 194 117
0.37345 0.16176 0.6415 173 194 117
0.42467 -0.54305 0.6415 173 194 117
0.37345 -0.5872 0.6415 173 194 117
-0.27307 -0.5872 0.6415 173 194 117
-0.32429 -0.54305 0.6415 173 194 117
-0.32429 0.1176 0.6415 173 194 117
-0.27307 0.16176 0.6415 173 194 117
0.41786 -0.53704 1.4471 181 199 128
0.36758 -0.5804 1.4471 181 199 128
-0.2672 -0.5804 1.4471 181 199 128
-0.31748 -0.53704 1.4471 181 199 128
0.41786 0.1116 1.4471 181 199 128
-0.31748 0.1116 1.4471 181 199 128
0.36758 0.15495 1.4471 181 199 128
-0.2672 0.15495 1.4471 181 199 128
-0.59088 0.26944 0.39739 173 194 117
-0.59088 0.26944 1.03595 173 194 117
-0.54199 0.22729 1.03595 173 194 117
-0.54199 0.22729 0.39739 173 194 117
-0.59088 0.90006 0.39739 173 194 117
-0.59088 0.90006 1.03595 173 194 117
-0.54199 0.94221 0.39739 173 194 117
-0.54199 0.94221 1.03595 173 194 117
0.07515 0.22729 0.39739 173 194 117
0.07515 0.22729 1.03595 173 194 117
0.07515 0.94221 1.03595 173 194 117
0.07515 0.94221 0.39739 173 194 117
-0.51113 0.90646 1.07019 173 194 117
0.04429 0.90646 1.07019 173 194 117
-0.55513 0.86853 1.07019 173 194 117
-0.55513 0.30097 1.07019 173 194 117
-0.51113 0.26304 1.07019 173 194 117
0.04429 0.26304 1.07019 173 194 117
-0.51628 0.91242 0.3653 173 194 117
-0.56109 0.87378 0.3653 173 194 117
-0.56109 0.29571 0.3653 173 194 117
-0.51628 0.25708 0.3653 173 194 117
0.04944 0.25708 0.3653 173 194 117
0.09425 0.29571 0.3653 173 194 117
0.12404 0.26944 0.39739 173 194 117
0.12404 0.26944 1.03595 173 194 117
0.12404 0.90006 1.03595 173 194 117
0.12404 0.90006 0.39739 173 194 117
0.08829 0.30097 1.07019 173 194 117
0.08829 0.86853 1.07019 173 194 117
0.09425 0.87378 0.3653 173 194 117
0.04944 0.91242 0.3653 173 194 117
0.08829 0.30097 1.07019 181 199 128
0.04429 0.26304 1.07019 181 199 128
-0.51113 0.26304 1.07019 181 199 128
-0.55513 0.30097 1.07019 181 199 128
0.08829 0.86853 1.07019 181 199 128
-0.55513 0.86853 1.07019 181 199 128
0.04429 0.90646 1.07019 181 199 128
-0.51113 0.90646 1.07019 181 199 128
-0.78736 1.01087 0.73413 173 194 117
-0.78736 1.01087 1.28147 173 194 117
-0.74545 0.97474 1.28147 173 194 117
-0.74545 0.97474 0.73413 173 194 117
-0.78736 1.5514 0.73413 173 194 117
-0.78736 1.5514 1.28147 173 194 117
-0.74545 1.58753 0.73413 173 194 117
-0.74545 1.58753 1.28147 173 194 117
-0.21647 0.97474 0.73413 173 194 117
-0.21647 0.97474 1.28147 173 194 117
-0.21647 1.58753 1.28147 173 194 117
-0.21647 1.58753 0.73413 173 194 117
-0.75672 1.52437 1.31082 173 194 117
-0.719 1.55689 1.31082 173 194 117
-0.24292 1.55689 1.31082 173 194 117
-0.75672 1.03789 1.31082 173 194 117
-0.719 1.00538 1.31082 173 194 117
-0.24292 1.00538 1.31082 173 194 117
-0.20521 1.03789 1.31082 173 194 117
-0.17457 1.01087 1.28147 173 194 117
-0.17457 1.01087 0.73413 173 194 117
-0.17457 1.5514 1.28147 173 194 117
-0.17457 1.5514 0.73413 173 194 117
-0.20521 1.52437 1.31082 173 194 117
-0.2001 1.52888 0.70663 173 194 117
-0.23851 1.56199 0.70663 173 194 117
-0.72341 1.56199 0.70663 173 194 117
-0.76182 1.52888 0.70663 173 194 117
-0.76182 1.03339 0.70663 173 194 117
-0.72341 1.00027 0.70663 173 194 117
-0.23851 1.00027 0.70663 173 194 117
-0.2001 1.03339 0.70663 173 194 117
-0.20521 1.03789 1.31082 181 199 128
-0.24292 1.00538 1.31082 181 199 128
-0.719 1.00538 1.31082 181 199 128
-0.75672 1.03789 1.31082 181 199 128
-0.20521 1.52437 1.31082 181 199 128
-0.75672 1.52437 1.31082 181 199 128
-0.24292 1.55689 1.31082 181 199 128
-0.719 1.55689 1.31082 181 199 128
-0.57866 1.64746 1.07568 173 194 117
-0.57866 1.64746 1.53179 173 194 117
-0.54374 1.61736 1.53179 173 194 117
-0.54374 1.61736 1.07568 173 194 117
-0.57866 2.09791 1.07568 173 194 117
-0.57866 2.09791 1.53179 173 194 117
-0.54374 2.12801 1.07568 173 194 117
-0.54374 2.12801 1.53179 173 194 117
-0.10293 1.61736 1.07568 173 194 117
-0.10293 1.61736 1.53179 173 194 117
-0.10293 2.12801 1.53179 173 194 117
-0.10293 2.12801 1.07568 173 194 117
-0.5217 2.10248 1.55625 173 194 117
-0.12497 2.10248 1.55625 173 194 117
-0.55313 2.07539 1.55625 173 194 117
-0.55313 1.66999 1.55625 173 194 117
-0.5217 1.64289 1.55625 173 194 117
-0.12497 1.64289 1.55625 173 194 117
-0.52537 2.10674 1.05275 173 194 117
-0.55738 2.07914 1.05275 173 194 117
-0.55738 1.66623 1.05275 173 194 117
-0.52537 1.63864 1.05275 173 194 117
-0.12129 1.63864 1.05275 173 194 117
-0.08928 1.66623 1.05275 173 194 117
-0.068 1.64746 1.07568 173 194 117
-0.068 1.64746 1.53179 173 194 117
-0.068 2.09791 1.53179 173 194 117
-0.068 2.09791 1.07568 173 194 117
-0.09354 1.66999 1.55625 173 194 117
-0.09354 2.07539 1.55625 173 194 117
-0.08928 2.07914 1.05275 173 194 117
-0.12129 2.10674 1.05275 173 194 117
-0.09354 1.66999 1.55625 181 199 128
-0.12497 1.64289 1.55625 181 199 128
-0.5217 1.64289 1.55625 181 199 128
-0.55313 1.66999 1.55625 181 199 128
-0.09354 2.07539 1.55625 181 199 128
-0.55313 2.07539 1.55625 181 199 128
-0.12497 2.10248 1.55625 181 199 128
-0.5217 2.10248 1.55625 181 199 128
-0.47653 1.91726 1.59028 173 194 117
-0.47653 1.91726 1.86395 173 194 117
-0.45558 1.8992 1.86395 173 194 117
-0.45558 1.8992 1.59028 173 194 117
-0.47653 2.18753 1.59028 173 194 117
-0.47653 2.18753 1.86395 173 194 117
-0.45558 2.20559 1.59028 173 194 117
-0.45558 2.20559 1.86395 173 194 117
-0.19109 1.8992 1.59028 173 194 117
-0.19109 1.8992 1.86395 173 194 117
-0.19109 2.20559 1.86395 173 194 117
-0.19109 2.20559 1.59028 173 194 117
-0.44235 2.19027 1.87862 173 194 117
-0.20431 2.19027 1.87862 173 194 117
-0.46121 2.17402 1.87862 173 194 117
-0.46121 1.93078 1.87862 173 194 117
-0.44235 1.91452 1.87862 173 194 117
-0.20431 1.91452 1.87862 173 194 117
-0.44456 1.91197 1.57652 173 194 117
-0.20211 1.91197 1.57652 173 194 117
-0.46376 1.92853 1.57652 173 194 117
-0.1829 1.92853 1.57652 173 194 117
-0.46376 2.17627 1.57652 173 194 117
-0.44456 2.19283 1.57652 173 194 117
-0.20211 2.19283 1.57652 173 194 117
-0.1829 2.17627 1.57652 173 194 117
-0.18546 1.93078 1.87862 181 199 128
-0.20431 1.91452 1.87862 181 199 128
-0.44235 1.91452 1.87862 181 199 128
-0.46121 1.93078 1.87862 181 199 128
-0.18546 2.17402 1.87862 181 199 128
-0.46121 2.17402 1.87862 181 199 128
-0.20431 2.19027 1.87862 181 199 128
-0.44235 2.19027 1.87862 181 199 128
-0.17014 1.91726 1.59028 173 194 117
-0.17014 1.91726 1.86395 173 194 117
-0.17014 2.18753 1.86395 173 194 117
-0.17014 2.18753 1.59028 173 194 117
-0.18546 1.93078 1.87862 173 194 117
-0.18546 2.17402 1.87862 173 194 117
-0.35149 1.96231 1.90016 173 194 117
-0.35149 1.96231 2.08261 173 194 117
-0.33752 1.95027 2.08261 173 194 117
-0.33752 1.95027 1.90016 173 194 117
-0.35149 2.14249 1.90016 173 194 117
-0.35149 2.14249 2.08261 173 194 117
-0.33752 2.15453 1.90016 173 194 117
-0.33752 2.15453 2.08261 173 194 117
-0.16119 1.95027 1.90016 173 194 117
-0.16119 1.95027 2.08261 173 194 117
-0.16119 2.15453 2.08261 173 194 117
-0.16119 2.15453 1.90016 173 194 117
-0.3287 2.14432 2.09239 173 194 117
-0.17001 2.14432 2.09239 173 194 117
-0.34127 2.13348 2.09239 173 194 117
-0.34127 1.97132 2.09239 173 194 117
-0.3287 1.96048 2.09239 173 194 117
-0.17001 1.96048 2.09239 173 194 117
-0.33017 2.14602 1.89099 173 194 117
-0.34298 2.13498 1.89099 173 194 117
-0.34298 1.96982 1.89099 173 194 117
-0.33017 1.95878 1.89099 173 194 117
-0.16854 1.95878 1.89099 173 194 117
-0.15574 1.96982 1.89099 173 194 117
-0.14722 1.96231 1.90016 173 194 117
-0.14722 1.96231 2.08261 173 194 117
-0.14722 2.14249 2.08261 173 194 117
-0.14722 2.14249 1.90016 173 194 117
-0.15744 1.97132 2.09239 173 194 117
-0.15744 2.13348 2.09239 173 194 117
-0.15574 2.13498 1.89099 173 194 117
-0.16854 2.14602 1.89099 173 194 117
-0.15744 1.97132 2.09239 181 199 128
-0.17001 1.96048 2.09239 181 199 128
-0.3287 1.96048 2.09239 181 199 128
-0.34127 1.97132 2.09239 181 199 128
-0.15744 2.13348 2.09239 181 199 128
-0.34127 2.13348 2.09239 181 199 128
-0.17001 2.14432 2.09239 181 199 128
-0.3287 2.14432 2.09239 181 199 128
-0.28739 1.91726 2.12094 173 194 117
-0.28739 1.91726 2.66558 173 194 117
-0.26644 1.8992 2.66558 173 194 117
-0.26644 1.8992 2.12094 173 194 117
-0.28739 2.18753 2.12094 173 194 117
-0.28739 2.18753 2.66558 173 194 117
-0.26644 2.20559 2.12094 173 194 117
-0.26644 2.20559 2.66558 173 194 117
-0.00195 1.8992 2.12094 173 194 117
-0.00195 1.8992 2.66558 173 194 117
-0.00195 2.20559 2.66558 173 194 117
-0.00195 2.20559 2.12094 173 194 117
-0.27207 2.17402 2.68025 173 194 117
-0.25321 2.19027 2.68025 173 194 117
-0.01517 2.19027 2.68025 173 194 117
-0.27207 1.93078 2.68025 173 194 117
-0.25321 1.91452 2.68025 173 194 117
-0.01517 1.91452 2.68025 173 194 117
0.00368 1.93078 2.68025 173 194 117
0.019 1.91726 2.66558 173 194 117
0.019 1.91726 2.12094 173 194 117
0.019 2.18753 2.66558 173 194 117
0.019 2.18753 2.12094 173 194 117
0.00368 2.17402 2.68025 173 194 117
0.00624 2.17627 2.10718 173 194 117
-0.01297 2.19283 2.10718 173 194 117
-0.25542 2.19283 2.10718 173 194 117
-0.27462 2.17627 2.10718 173 194 117
-0.27462 1.92853 2.10718 173 194 117
-0.25542 1.91197 2.10718 173 194 117
-0.01297 1.91197 2.10718 173 194 117
0.00624 1.92853 2.10718 173 194 117
0.00368 1.93078 2.68025 181 199 128
-0.01517 1.91452 2.68025 181 199 128
-0.25321 1.91452 2.68025 181 199 128
-0.27207 1.93078 2.68025 181 199 128
0.00368 2.17402 2.68025 181 199 128
-0.27207 2.17402 2.68025 181 199 128
-0.01517 2.19027 2.68025 181 199 128
-0.25321 2.19027 2.68025 181 199 128
-0.19169 1.91727 2.71589 173 194 117
-0.19169 1.91727 2.98956 173 194 117
-0.17073 1.8992 2.98956 173 194 117
-0.17073 1.8992 2.71589 173 194 117
-0.19169 2.18753 2.71589 173 194 117
-0.19169 2.18753 2.98956 173 194 117
-0.17073 2.2056 2.71589 173 194 117
-0.17073 2.2056 2.98956 173 194 117
0.09376 1.8992 2.71589 173 194 117
0.09376 1.8992 2.98955 173 194 117
0.09376 2.20559 2.98955 173 194 117
0.09376 2.20559 2.71589 173 194 117
-0.15751 2.19028 3.00423 173 194 117
0.08053 2.19027 3.00423 173 194 117
-0.17637 2.17402 3.00423 173 194 117
-0.17637 1.93078 3.00423 173 194 117
-0.15751 1.91452 3.00423 173 194 117
0.08053 1.91452 3.00423 173 194 117
-0.15971 2.19283 2.70213 173 194 117
-0.17892 2.17627 2.70213 173 194 117
-0.17892 1.92853 2.70213 173 194 117
-0.15971 1.91197 2.70213 173 194 117
0.08274 1.91197 2.70213 173 194 117
0.10194 1.92853 2.70213 173 194 117
0.11471 1.91726 2.71589 173 194 117
0.11471 1.91726 2.98955 173 194 117
0.11471 2.18753 2.98955 173 194 117
0.11471 2.18753 2.71589 173 194 117
0.09939 1.93078 3.00423 173 194 117
0.09939 2.17402 3.00423 173 194 117
0.10194 2.17627 2.70213 173 194 117
0.08274 2.19283 2.70213 173 194 117
0.09939 1.93078 3.00423 181 199 128
0.08053 1.91452 3.00423 181 199 128
-0.15751 1.91452 3.00423 181 199 128
-0.17637 1.93078 3.00423 181 199 128
0.09939 2.17402 3.00423 181 199 128
-0.17637 2.17402 3.00423 181 199 128
0.08053 2.19027 3.00423 181 199 128
-0.15751 2.19028 3.00423 181 199 128
0.21876 -1.65643 2.87527 50 49 51
0.21876 -1.65643 2.96808 50 49 51
0.2612 -1.65643 2.96808 50 49 51
0.2612 -1.65643 2.87527 50 49 51
0.2612 -1.63799 2.96808 50 49 51
0.21876 -1.63799 2.96808 50 49 51
0.21876 -1.63799 2.87527 50 49 51
0.2612 -1.63799 2.87527 50 49 51
-0.21876 -1.65643 2.87527 50 49 51
-0.2612 -1.65643 2.87527 50 49 51
-0.2612 -1.65643 2.96808 50 49 51
-0.21876 -1.65643 2.96808 50 49 51
-0.2612 -1.63799 2.96808 50 49 51
-0.21876 -1.63799 2.96808 50 49 51
-0.21876 -1.63799 2.87527 50 49 51
-0.2612 -1.63799 2.87527 50 49 51
0.52281 -1.71029 3.21819 173 194 117
0.63967 -1.60982 3.21819 173 194 117
0.52281 -1.71029 3.01293 173 194 117
0.1262 -1.71029 2.93857 173 194 117
0.15758 -1.6415 2.93857 173 194 117
0.52281 -1.6415 3.01293 173 194 117
0.52281 -1.71029 2.84878 173 194 117
0.52281 -1.6415 2.84878 173 194 117
0.58486 -1.58315 3.28111 173 194 117
0.49352 -1.6583 3.28111 173 194 117
0.58486 -0.55809 3.28111 173 194 117
0.63967 -0.53142 3.21819 173 194 117
0.49352 -0.48294 3.28111 173 194 117
0.52281 -0.43094 3.21819 173 194 117
0.52281 -0.43094 2.27463 173 194 117
0.63967 -0.53142 2.27463 173 194 117
0.63967 -1.2661 2.59305 173 194 117
0.60215 -0.56449 2.23403 173 194 117
0.50123 -0.46903 2.23403 173 194 117
0.63973 -1.79834 2.27463 173 194 117
0.6022 -1.76461 2.23403 173 194 117
0.15648 -0.48294 3.28111 173 194 117
0.63967 -1.60982 2.84878 173 194 117
0.63992 -1.9989 2.59305 173 194 117
0.63967 -1.2661 2.386 173 194 117
0.63973 -1.79834 2.386 173 194 117
0.63992 -1.9989 2.84878 173 194 117
-0.52281 -0.43094 3.21819 173 194 117
-0.52281 -0.43094 2.27463 173 194 117
-0.63967 -0.53142 3.21819 173 194 117
-0.63967 -0.53142 2.27463 173 194 117
-0.63967 -1.2661 2.59305 173 194 117
-0.60215 -0.56449 2.23403 173 194 117
-0.6022 -1.76461 2.23403 173 194 117
-0.49352 -0.48294 3.28111 173 194 117
-0.58486 -0.55809 3.28111 173 194 117
-0.63967 -1.60982 3.21819 173 194 117
-0.58486 -1.58315 3.28111 173 194 117
-0.50123 -0.46903 2.23403 173 194 117
-0.63973 -1.79834 2.27463 173 194 117
-0.15648 -0.48294 3.28111 173 194 117
-0.63967 -1.2661 2.386 173 194 117
-0.63973 -1.79834 2.386 173 194 117
0.07824 -0.48294 3.47879 173 194 117
0.15648 -0.48294 3.47879 173 194 117
0.15648 -1.01301 3.28111 173 194 117
0.15648 -1.01301 3.47879 173 194 117
0.12094 -1.0622 3.28111 173 194 117
0.12094 -1.0622 3.47879 173 194 117
-0.07824 -0.48294 3.47879 173 194 117
-0.12094 -1.0622 3.28111 173 194 117
-0.12094 -1.0622 3.47879 173 194 117
-0.15648 -1.01301 3.47879 173 194 117
-0.15648 -1.01301 3.28111 173 194 117
0.07824 -0.48287 4.30859 173 194 117
-0.07824 -0.48287 4.30859 173 194 117
0.07824 -0.93106 3.47879 173 194 117
0.07824 -0.93106 4.30859 173 194 117
-0.0523 -0.50618 4.35177 173 194 117
0.0523 -0.50618 4.35177 173 194 117
-0.0523 -0.90775 4.35177 173 194 117
-0.07824 -0.93106 4.30859 173 194 117
0.0523 -0.90775 4.35177 173 194 117
-0.07824 -0.93106 3.47879 173 194 117
-0.15648 -0.48294 3.47879 173 194 117
0.52206 -2.09888 2.59305 173 194 117
0.52206 -2.09888 2.84878 173 194 117
0.56768 -1.93367 2.59305 173 194 117
0.56833 -1.26622 2.59305 173 194 117
0.56814 -1.26622 2.386 173 194 117
0.49162 -2.00328 2.59305 173 194 117
0.45556 -2.00328 2.59305 173 194 117
0.45556 -2.09888 2.59305 173 194 117
0.45556 -2.09888 2.55743 173 194 117
0.45556 -2.00328 2.55743 173 194 117
0.26162 -2.09888 2.55743 173 194 117
0.26162 -2.00328 2.55743 173 194 117
0.26162 -2.09888 2.59305 173 194 117
0.26162 -2.00328 2.59305 173 194 117
0.15668 -2.09888 2.59305 173 194 117
0.15668 -2.00328 2.59305 173 194 117
0.15734 -2.0987 2.84878 173 194 117
0.12585 -2.09851 2.84878 173 194 117
-0.15668 -2.09888 2.59305 173 194 117
-0.07895 -2.09888 2.5 173 194 117
-0.07895 -2.00328 2.5 173 194 117
-0.15668 -2.00328 2.59305 173 194 117
-0.26162 -2.09888 2.59305 173 194 117
-0.12585 -2.09851 2.84878 173 194 117
-0.15734 -2.0987 2.84878 173 194 117
-0.26162 -2.00328 2.59305 173 194 117
0.07895 -2.09888 2.5 173 194 117
-0.26162 -2.09888 2.55743 173 194 117
-0.26162 -2.00328 2.55743 173 194 117
-0.45556 -2.09888 2.55743 173 194 117
-0.45556 -2.00328 2.55743 173 194 117
-0.45556 -2.09888 2.59305 173 194 117
-0.45556 -2.00328 2.59305 173 194 117
-0.52206 -2.09888 2.59305 173 194 117
-0.49162 -2.00328 2.59305 173 194 117
-0.56768 -1.93367 2.59305 173 194 117
-0.63992 -1.9989 2.59305 173 194 117
-0.63992 -1.9989 2.84878 173 194 117
-0.52206 -2.09888 2.84878 173 194 117
-0.56833 -1.26622 2.59305 173 194 117
-0.56814 -1.26622 2.386 173 194 117
0.52277 -1.88333 2.27463 173 194 117
0.52277 -1.88333 2.386 173 194 117
0.50119 -1.84535 2.23403 173 194 117
-0.52277 -1.88333 2.27463 173 194 117
-0.50119 -1.84535 2.23403 173 194 117
0.18889 -1.88333 2.386 173 194 117
-0.52277 -1.88333 2.386 173 194 117
-0.18889 -1.88333 2.386 173 194 117
0.15811 -1.88333 2.4268 173 194 117
-0.15811 -1.88333 2.4268 173 194 117
0.63967 -1.60982 2.84878 181 199 128
0.63992 -1.9989 2.84878 181 199 128
0.52206 -2.09888 2.84878 181 199 128
0.52281 -1.71029 2.84878 181 199 128
0.15734 -2.0987 2.84878 181 199 128
0.15728 -1.6415 2.84878 181 199 128
0.52281 -1.6415 2.84878 181 199 128
0.63973 -1.79834 2.386 181 199 128
0.52277 -1.88333 2.386 181 199 128
0.43843 -1.80855 2.386 181 199 128
0.56813 -1.72148 2.386 181 199 128
0.63967 -1.2661 2.386 181 199 128
0.56814 -1.26622 2.386 181 199 128
0.18889 -1.80855 2.386 181 199 128
0.18889 -1.88333 2.386 181 199 128
0.15811 -1.80855 2.4268 181 199 128
0.15811 -1.88333 2.4268 181 199 128
-0.18889 -1.88333 2.386 181 199 128
-0.52277 -1.88333 2.386 181 199 128
-0.43843 -1.80855 2.386 181 199 128
-0.18889 -1.80855 2.386 181 199 128
-0.63973 -1.79834 2.386 181 199 128
-0.56813 -1.72148 2.386 181 199 128
-0.63967 -1.2661 2.386 181 199 128
-0.56814 -1.26622 2.386 181 199 128
-0.15811 -1.88333 2.4268 181 199 128
-0.15811 -1.80855 2.4268 181 199 128
-0.56813 -1.72148 2.386 78 83 66
-0.56814 -1.26622 2.386 78 83 66
-0.18889 -1.80855 2.386 78 83 66
-0.43843 -1.80855 2.386 78 83 66
0.18889 -1.80855 2.386 78 83 66
0.56814 -1.26622 2.386 78 83 66
0.56833 -1.26622 2.59305 78 83 66
-0.56833 -1.26622 2.59305 78 83 66
-0.15668 -2.00328 2.59305 78 83 66
-0.26162 -2.00328 2.59305 78 83 66
0.15668 -2.00328 2.59305 78 83 66
0.26162 -2.00328 2.59305 78 83 66
0.45556 -2.00328 2.59305 78 83 66
0.56768 -1.93367 2.59305 78 83 66
0.49162 -2.00328 2.59305 78 83 66
-0.45556 -2.00328 2.59305 78 83 66
-0.49162 -2.00328 2.59305 78 83 66
-0.56768 -1.93367 2.59305 78 83 66
0.43843 -1.80855 2.386 78 83 66
0.56813 -1.72148 2.386 78 83 66
0.15728 -1.6415 2.84878 163 185 101
0.12588 -1.6415 2.84878 163 185 101
0.15758 -1.6415 2.93857 163 185 101
0.1262 -1.71029 2.93857 163 185 101
0.15734 -2.0987 2.84878 163 185 101
0.12585 -2.09851 2.84878 163 185 101
0.09025 -1.71029 2.93857 163 185 101
0.12595 -1.73808 2.93215 163 185 101
0.09043 -1.71029 3.06594 163 185 101
0.12582 -1.71029 3.06594 163 185 101
0.49352 -0.48294 3.28111 181 199 128
0.58486 -0.55809 3.28111 181 199 128
0.58486 -1.58315 3.28111 181 199 128
0.15648 -0.48294 3.28111 181 199 128
0.15648 -1.01301 3.28111 181 199 128
0.12094 -1.0622 3.28111 181 199 128
-0.12094 -1.0622 3.28111 181 199 128
-0.58486 -1.58315 3.28111 181 199 128
-0.49352 -1.6583 3.28111 181 199 128
0.49352 -1.6583 3.28111 181 199 128
-0.15648 -1.01301 3.28111 181 199 128
-0.15648 -0.48294 3.28111 181 199 128
-0.49352 -0.48294 3.28111 181 199 128
-0.58486 -0.55809 3.28111 181 199 128
0.15648 -1.01301 3.47879 181 199 128
0.07824 -0.93106 3.47879 181 199 128
0.07824 -0.48294 3.47879 181 199 128
0.15648 -0.48294 3.47879 181 199 128
-0.15648 -1.01301 3.47879 181 199 128
-0.07824 -0.93106 3.47879 181 199 128
-0.07824 -0.48294 3.47879 181 199 128
-0.15648 -0.48294 3.47879 181 199 128
-0.12094 -1.0622 3.47879 181 199 128
0.12094 -1.0622 3.47879 181 199 128
-0.52281 -1.71029 3.01293 173 194 117
-0.52281 -1.71029 2.84878 173 194 117
-0.63967 -1.60982 2.84878 173 194 117
-0.52281 -1.6415 3.01293 173 194 117
-0.15717 -1.6415 2.93857 173 194 117
-0.12604 -1.71029 2.93857 173 194 117
-0.52281 -1.71029 3.21819 173 194 117
-0.52281 -1.6415 2.84878 173 194 117
-0.12582 -1.71029 3.12814 173 194 117
-0.49352 -1.6583 3.28111 173 194 117
0 -1.71029 3.21819 173 194 117
-0.09183 -1.71029 3.12814 173 194 117
0.09043 -1.71029 3.06594 173 194 117
0.09025 -1.71029 2.93857 173 194 117
-0.09203 -1.71029 2.93857 173 194 117
0.12582 -1.71029 3.06594 173 194 117
-0.63967 -1.60982 2.84878 181 199 128
-0.52281 -1.71029 2.84878 181 199 128
-0.52206 -2.09888 2.84878 181 199 128
-0.63992 -1.9989 2.84878 181 199 128
-0.15734 -2.0987 2.84878 181 199 128
-0.15728 -1.6415 2.84878 181 199 128
-0.52281 -1.6415 2.84878 181 199 128
-0.52281 -1.6415 3.01293 255 255 255
-0.15717 -1.6415 2.93857 255 255 255
-0.15728 -1.6415 2.84878 255 255 255
-0.52281 -1.6415 2.84878 255 255 255
-0.12604 -1.71029 2.93857 163 185 101
-0.12588 -1.6415 2.84878 163 185 101
-0.15717 -1.6415 2.93857 163 185 101
-0.15728 -1.6415 2.84878 163 185 101
-0.15734 -2.0987 2.84878 163 185 101
-0.12585 -2.09851 2.84878 163 185 101
-0.09203 -1.71029 2.93857 163 185 101
-0.12582 -1.71029 3.12814 163 185 101
-0.09183 -1.71029 3.12814 163 185 101
-0.12597 -1.74453 2.93066 163 185 101
0.0523 -0.50618 4.35177 181 199 128
0.0523 -0.90775 4.35177 181 199 128
-0.0523 -0.90775 4.35177 181 199 128
-0.0523 -0.50618 4.35177 181 199 128
0.07895 -2.00328 2.5 173 194 117
0.18889 -1.80855 2.386 173 194 117
0.15811 -1.80855 2.4268 173 194 117
-0.15811 -1.80855 2.4268 173 194 117
-0.18889 -1.80855 2.386 173 194 117
0.52281 -1.6415 3.01293 255 255 255
0.52281 -1.6415 2.84878 255 255 255
0.15728 -1.6415 2.84878 255 255 255
0.15758 -1.6415 2.93857 255 255 255
-0.12597 -1.74453 2.93066 181 199 128
-0.09203 -1.71029 2.93857 181 199 128
0.09025 -1.71029 2.93857 181 199 128
0.12595 -1.73808 2.93215 181 199 128
0.12585 -2.09851 2.84878 181 199 128
-0.12585 -2.09851 2.84878 181 199 128
3 0 2 1
3 0 3 2
3 4 0 1
3 4 1 5
3 5 6 4
3 5 7 6
3 2 3 8
3 2 8 9
3 6 7 10
3 6 10 11
3 7 5 12
3 7 12 13
3 10 7 13
3 10 13 14
3 5 15 12
3 5 1 15
3 1 16 15
3 1 2 16
3 2 17 16
3 2 9 17
3 18 10 14
3 11 10 18
3 11 18 19
3 20 19 18
3 20 18 21
3 9 20 21
3 9 8 20
3 9 21 22
3 9 22 17
3 21 23 22
3 21 18 23
3 18 14 23
3 11 19 24
3 11 24 25
3 19 26 24
3 19 20 26
3 20 27 26
3 20 8 27
3 8 28 27
3 8 3 28
3 3 29 28
3 27 28 29
3 27 29 26
3 3 0 29
3 0 30 29
3 26 29 30
3 0 4 30
3 4 31 30
3 4 6 31
3 6 25 31
3 6 11 25
3 24 31 25
3 24 30 31
3 26 30 24
3 32 34 33
3 32 35 34
3 36 35 32
3 36 37 35
3 38 37 36
3 38 39 37
3 40 42 41
3 40 43 42
3 44 40 41
3 44 41 45
3 45 46 44
3 45 47 46
3 42 43 48
3 42 48 49
3 46 47 50
3 46 50 51
3 47 45 52
3 47 52 53
3 50 47 53
3 50 53 54
3 45 55 52
3 45 41 55
3 41 56 55
3 41 42 56
3 42 57 56
3 42 49 57
3 49 58 57
3 49 59 58
3 49 60 59
3 60 61 59
3 61 50 54
3 60 62 61
3 49 48 60
3 51 61 62
3 51 50 61
3 59 63 58
3 59 61 63
3 61 54 63
3 51 62 64
3 51 64 65
3 62 66 64
3 62 60 66
3 60 67 66
3 60 48 67
3 48 68 67
3 48 43 68
3 43 69 68
3 67 68 69
3 67 69 66
3 43 40 69
3 40 70 69
3 66 69 70
3 40 44 70
3 44 71 70
3 44 46 71
3 46 65 71
3 46 51 65
3 64 71 65
3 64 70 71
3 66 70 64
3 72 74 73
3 72 75 74
3 76 75 72
3 76 77 75
3 78 77 76
3 78 79 77
3 80 82 81
3 80 83 82
3 84 80 81
3 84 81 85
3 85 86 84
3 85 87 86
3 82 83 88
3 82 88 89
3 86 87 90
3 86 90 91
3 87 85 92
3 87 92 93
3 90 87 93
3 90 93 94
3 85 95 92
3 85 81 95
3 81 96 95
3 81 82 96
3 82 97 96
3 82 89 97
3 98 90 94
3 91 90 98
3 91 98 99
3 100 99 98
3 100 98 101
3 89 100 101
3 89 88 100
3 89 101 102
3 89 102 97
3 101 103 102
3 101 98 103
3 98 94 103
3 91 99 104
3 91 104 105
3 99 106 104
3 99 100 106
3 100 107 106
3 100 88 107
3 88 108 107
3 88 83 108
3 83 109 108
3 107 108 109
3 107 109 106
3 83 80 109
3 80 110 109
3 106 109 110
3 80 84 110
3 84 111 110
3 84 86 111
3 86 105 111
3 86 91 105
3 104 111 105
3 104 110 111
3 106 110 104
3 112 114 113
3 112 115 114
3 116 115 112
3 116 117 115
3 118 117 116
3 118 119 117
3 120 122 121
3 120 123 122
3 124 120 121
3 124 121 125
3 125 126 124
3 125 127 126
3 122 123 128
3 122 128 129
3 126 127 130
3 126 130 131
3 130 127 132
3 130 132 133
3 127 134 132
3 127 125 134
3 125 135 134
3 125 121 135
3 121 136 135
3 121 122 136
3 122 137 136
3 122 129 137
3 124 126 138
3 124 138 139
3 120 124 139
3 120 139 140
3 123 120 140
3 123 140 141
3 142 141 140
3 142 140 143
3 143 140 139
3 128 123 141
3 128 141 142
3 144 128 142
3 129 128 144
3 129 144 145
3 144 146 145
3 144 147 146
3 131 146 147
3 131 130 146
3 129 145 148
3 129 148 137
3 145 149 148
3 145 146 149
3 146 133 149
3 146 130 133
3 131 147 150
3 131 150 151
3 126 131 151
3 126 151 138
3 147 143 150
3 147 144 143
3 144 142 143
3 150 138 151
3 150 139 138
3 143 139 150
3 152 154 153
3 152 155 154
3 156 155 152
3 156 157 155
3 158 157 156
3 158 159 157
3 160 162 161
3 160 163 162
3 164 160 161
3 164 161 165
3 165 166 164
3 165 167 166
3 162 163 168
3 162 168 169
3 166 167 170
3 166 170 171
3 167 165 172
3 167 172 173
3 170 167 173
3 170 173 174
3 165 175 172
3 165 161 175
3 161 176 175
3 161 162 176
3 162 177 176
3 162 169 177
3 169 178 177
3 169 179 178
3 169 180 179
3 180 181 179
3 181 170 174
3 180 182 181
3 169 168 180
3 171 181 182
3 171 170 181
3 179 183 178
3 179 181 183
3 181 174 183
3 171 182 184
3 171 184 185
3 166 171 185
3 166 185 186
3 164 166 186
3 164 186 187
3 160 164 187
3 160 187 188
3 163 160 188
3 168 163 189
3 163 188 189
3 190 189 188
3 190 188 191
3 191 188 187
3 168 189 190
3 180 168 190
3 180 190 191
3 182 191 184
3 182 180 191
3 184 187 186
3 191 187 184
3 184 186 185
3 192 194 193
3 192 195 194
3 196 195 192
3 196 197 195
3 198 197 196
3 198 199 197
3 200 202 201
3 200 203 202
3 204 200 201
3 204 201 205
3 205 206 204
3 205 207 206
3 202 203 208
3 202 208 209
3 206 207 210
3 206 210 211
3 210 207 212
3 210 212 213
3 207 214 212
3 207 205 214
3 205 215 214
3 205 201 215
3 201 216 215
3 201 202 216
3 202 217 216
3 202 209 217
3 204 206 218
3 204 218 219
3 200 204 219
3 200 219 220
3 203 200 220
3 203 220 221
3 222 221 220
3 222 220 223
3 223 220 219
3 208 203 221
3 208 221 222
3 224 208 222
3 209 208 224
3 209 224 225
3 224 226 225
3 224 227 226
3 211 226 227
3 211 210 226
3 209 225 228
3 209 228 217
3 225 229 228
3 225 226 229
3 226 213 229
3 226 210 213
3 211 227 230
3 211 230 231
3 227 223 230
3 227 224 223
3 224 222 223
3 232 234 233
3 232 235 234
3 236 235 232
3 236 237 235
3 238 237 236
3 238 239 237
3 206 231 218
3 206 211 231
3 230 218 231
3 230 219 218
3 223 219 230
3 240 242 241
3 240 243 242
3 244 240 241
3 244 241 245
3 245 246 244
3 245 247 246
3 242 243 248
3 242 248 249
3 246 247 250
3 246 250 251
3 250 247 252
3 250 252 253
3 247 254 252
3 247 245 254
3 245 255 254
3 245 241 255
3 241 256 255
3 241 242 256
3 242 257 256
3 242 249 257
3 248 243 258
3 248 258 259
3 259 258 260
3 259 260 261
3 243 260 258
3 243 240 260
3 240 262 260
3 261 260 262
3 240 244 262
3 244 263 262
3 244 246 263
3 246 264 263
3 246 251 264
3 265 263 264
3 265 262 263
3 261 262 265
3 266 268 267
3 266 269 268
3 270 269 266
3 270 271 269
3 272 271 270
3 272 273 271
3 274 276 275
3 274 277 276
3 249 274 275
3 249 248 274
3 251 276 277
3 251 250 276
3 249 275 278
3 249 278 257
3 275 279 278
3 275 276 279
3 276 253 279
3 276 250 253
3 251 277 265
3 251 265 264
3 277 261 265
3 277 274 261
3 274 259 261
3 274 248 259
3 280 282 281
3 280 283 282
3 284 280 281
3 284 281 285
3 285 286 284
3 285 287 286
3 282 283 288
3 282 288 289
3 286 287 290
3 286 290 291
3 290 287 292
3 290 292 293
3 287 294 292
3 287 285 294
3 285 295 294
3 285 281 295
3 281 296 295
3 281 282 296
3 282 297 296
3 282 289 297
3 284 286 298
3 284 298 299
3 280 284 299
3 280 299 300
3 283 280 300
3 283 300 301
3 302 301 300
3 302 300 303
3 303 300 299
3 288 283 301
3 288 301 302
3 304 288 302
3 289 288 304
3 289 304 305
3 304 306 305
3 304 307 306
3 291 306 307
3 291 290 306
3 289 305 308
3 289 308 297
3 305 309 308
3 305 306 309
3 306 293 309
3 306 290 293
3 291 307 310
3 291 310 311
3 286 291 311
3 286 311 298
3 307 303 310
3 307 304 303
3 304 302 303
3 310 298 311
3 310 299 298
3 303 299 310
3 312 314 313
3 312 315 314
3 316 315 312
3 316 317 315
3 318 317 316
3 318 319 317
3 320 322 321
3 320 323 322
3 324 320 321
3 324 321 325
3 325 326 324
3 325 327 326
3 322 323 328
3 322 328 329
3 326 327 330
3 326 330 331
3 327 325 332
3 327 332 333
3 330 327 333
3 330 333 334
3 325 335 332
3 325 321 335
3 321 336 335
3 321 322 336
3 322 337 336
3 322 329 337
3 329 338 337
3 329 339 338
3 329 340 339
3 340 341 339
3 341 330 334
3 340 342 341
3 329 328 340
3 331 341 342
3 331 330 341
3 339 343 338
3 339 341 343
3 341 334 343
3 331 342 344
3 331 344 345
3 326 331 345
3 326 345 346
3 324 326 346
3 324 346 347
3 320 324 347
3 320 347 348
3 323 320 348
3 328 323 349
3 323 348 349
3 350 349 348
3 350 348 351
3 351 348 347
3 328 349 350
3 340 328 350
3 340 350 351
3 342 351 344
3 342 340 351
3 344 347 346
3 351 347 344
3 344 346 345
3 352 354 353
3 352 355 354
3 356 355 352
3 356 357 355
3 358 357 356
3 358 359 357
3 360 362 361
3 360 363 362
3 364 360 361
3 364 361 365
3 365 366 364
3 365 367 366
3 362 363 368
3 362 368 369
3 366 367 370
3 366 370 371
3 370 367 372
3 370 372 373
3 367 374 372
3 367 365 374
3 365 375 374
3 365 361 375
3 361 376 375
3 361 362 376
3 362 377 376
3 362 369 377
3 364 366 378
3 364 378 379
3 360 364 379
3 360 379 380
3 363 360 380
3 363 380 381
3 382 381 380
3 382 380 383
3 383 380 379
3 368 363 381
3 368 381 382
3 384 368 382
3 369 368 384
3 369 384 385
3 384 386 385
3 384 387 386
3 371 386 387
3 371 370 386
3 369 385 388
3 369 388 377
3 385 389 388
3 385 386 389
3 386 373 389
3 386 370 373
3 371 387 390
3 371 390 391
3 366 371 391
3 366 391 378
3 387 383 390
3 387 384 383
3 384 382 383
3 390 378 391
3 390 379 378
3 383 379 390
3 392 394 393
3 392 395 394
3 396 395 392
3 396 397 395
3 398 397 396
3 398 399 397
3 400 402 401
3 400 403 402
3 401 402 404
3 403 404 402
3 401 404 405
3 406 403 400
3 406 401 405
3 406 400 401
3 406 407 403
3 403 407 404
3 408 410 409
3 408 411 410
3 411 412 410
3 409 410 412
3 411 413 412
3 414 408 409
3 414 411 408
3 414 413 411
3 414 409 415
3 409 412 415
3 416 418 417
3 416 419 418
3 418 419 420
3 418 420 421
3 422 418 421
3 422 421 423
3 416 417 424
3 416 424 425
3 417 426 424
3 417 427 426
3 427 428 426
3 427 429 428
3 427 430 429
3 427 431 430
3 432 431 427
3 430 431 433
3 430 433 434
3 433 431 435
3 433 435 436
3 429 437 428
3 432 427 438
3 432 438 439
3 431 440 435
3 440 431 432
3 440 441 435
3 439 438 442
3 430 443 429
3 430 444 443
3 434 444 430
3 445 443 444
3 445 444 446
3 447 445 446
3 448 433 436
3 444 448 446
3 448 436 449
3 446 448 449
3 445 450 443
3 445 451 450
3 452 451 445
3 452 453 451
3 444 454 448
3 434 454 444
3 446 449 455
3 443 450 456
3 429 443 456
3 429 456 437
3 457 446 455
3 457 447 446
3 457 455 458
3 433 454 434
3 433 448 454
3 459 437 456
3 460 437 459
3 461 437 460
3 461 460 462
3 462 463 461
3 462 464 463
3 459 456 465
3 466 463 464
3 466 464 467
3 466 467 468
3 466 468 469
3 470 465 471
3 470 459 465
3 472 459 470
3 472 470 473
3 470 471 474
3 470 474 475
3 473 470 475
3 471 476 474
3 471 477 476
3 473 475 478
3 477 478 476
3 477 473 478
3 473 477 479
3 479 477 471
3 479 471 465
3 473 479 472
3 465 456 480
3 438 427 417
3 417 418 438
3 438 418 422
3 442 481 439
3 442 482 481
3 483 439 481
3 484 439 483
3 484 432 439
3 432 484 485
3 432 485 440
3 483 481 486
3 481 487 486
3 481 488 487
3 482 488 481
3 487 488 489
3 487 489 490
3 490 489 491
3 488 491 489
3 490 491 492
3 488 493 491
3 493 492 491
3 493 494 492
3 494 493 495
3 494 495 496
3 497 493 488
3 497 488 482
3 498 493 497
3 498 495 493
3 498 499 495
3 500 495 499
3 501 500 499
3 501 499 502
3 502 499 503
3 504 503 499
3 498 504 499
3 504 505 503
3 502 503 506
3 500 507 495
3 506 503 508
3 506 508 509
3 509 508 510
3 503 510 508
3 509 510 511
3 503 512 510
3 512 511 510
3 512 513 511
3 513 512 514
3 513 514 515
3 516 515 514
3 516 514 517
3 518 517 514
3 518 514 519
3 512 519 514
3 520 516 517
3 520 517 447
3 447 521 520
3 447 457 521
3 503 519 512
3 503 505 519
3 441 522 435
3 441 523 522
3 435 522 524
3 524 522 525
3 524 525 526
3 435 524 436
3 523 527 522
3 455 526 525
3 458 455 525
3 458 525 528
3 455 449 526
3 524 449 436
3 524 526 449
3 525 529 528
3 522 529 525
3 522 527 529
3 529 527 530
3 529 530 531
3 532 534 533
3 532 535 534
3 535 536 534
3 535 537 536
3 535 538 537
3 539 541 540
3 539 542 541
3 543 542 539
3 543 544 542
3 540 541 545
3 540 545 546
3 546 545 547
3 546 547 548
3 549 551 550
3 549 552 551
3 553 550 551
3 553 551 554
3 555 553 554
3 555 554 556
3 557 552 549
3 557 558 552
3 548 558 557
3 548 547 558
3 559 561 560
3 559 562 561
3 560 561 563
3 560 563 564
3 565 560 564
3 565 566 560
3 565 567 566
3 566 567 568
3 565 569 567
3 565 570 569
3 565 571 570
3 572 571 565
3 572 573 571
3 566 568 574
3 566 574 575
3 566 575 576
3 564 563 577
3 564 577 578
3 579 581 580
3 582 580 581
3 583 579 580
3 583 580 584
3 585 586 582
3 582 587 585
3 582 588 587
3 582 586 580
3 580 586 584
3 589 591 590
3 589 592 591
3 591 592 593
3 593 594 591
3 591 594 595
3 591 595 596
3 591 596 597
3 591 597 598
3 596 595 599
3 596 599 600
3 601 596 600
3 601 602 596
3 603 605 604
3 603 606 605
3 604 607 603
3 604 608 607
3 607 608 609
3 607 609 610
3 603 607 611
3 603 611 612
3 613 615 614
3 614 616 613
3 613 616 617
3 613 617 618
3 619 613 618
3 614 620 616
3 618 621 619
3 619 452 613
3 613 452 615
3 615 452 445
3 619 453 452
3 619 622 453
3 623 622 619
3 447 615 445
3 624 619 621
3 624 623 619
3 625 623 624
3 624 626 625
3 624 627 626
3 416 623 625
3 416 625 628
3 416 628 419
3 425 623 416
3 425 622 623
3 629 631 630
3 629 632 631
3 633 630 631
3 633 634 630
3 630 634 635
3 447 517 615
3 517 518 615
3 636 638 637
3 636 639 638
3 640 642 641
3 642 643 641
3 641 643 644
3 641 644 645
3 646 647 640
3 646 648 647
3 649 646 640
3 649 641 645
3 640 641 649
3 469 480 456
3 469 468 480
3 650 652 651
3 650 653 652
3 496 507 654
3 496 495 507
3 501 496 654
3 501 502 496
3 654 500 501
3 654 507 500
3 513 509 511
3 513 506 509
3 494 490 492
3 494 487 490
3 655 657 656
3 655 658 657
3 659 661 660
3 659 662 661
3 663 665 664
3 663 666 665
3 667 666 663
3 667 663 668
